<svg viewBox="0 0 64 64" xml:space="preserve" xmlns="http://www.w3.org/2000/svg" enable-background="new 0 0 64 64" width="32px" height="30px"><path d="M60 3h-9.184A2.996 2.996 0 0 0 48 1H34a2.996 2.996 0 0 0-2.816 2H22c-1.654 0-3 1.346-3 3v13h-3.406a7.007 7.007 0 0 0-3.474.923L6.734 23H1v18h6.697l4.236 2.824A6.974 6.974 0 0 0 15.816 45H19v15c0 1.654 1.346 3 3 3h38c1.654 0 3-1.346 3-3V6c0-1.654-1.346-3-3-3zM25 27h2c2.206 0 4-1.794 4-4s-1.794-4-4-4h-2V9h6.184A2.996 2.996 0 0 0 34 11h14a2.996 2.996 0 0 0 2.816-2H57v48H25V27zm8-23a1 1 0 0 1 1-1h14a1 1 0 0 1 1 1v4a1 1 0 0 1-1 1H34a1 1 0 0 1-1-1V4zM21 6a1 1 0 0 1 1-1h9v2h-8v12h-2V6zm-5.184 37c-.99 0-1.949-.29-2.773-.84L8.303 39H3V25h4.266l5.847-3.341A5.008 5.008 0 0 1 15.594 21H27c1.103 0 2 .897 2 2s-.897 2-2 2H15v1c0 2.757-2.243 5-5 5v2c3.521 0 6.442-2.612 6.929-6H19v16h-3.184zM61 60a1 1 0 0 1-1 1H22a1 1 0 0 1-1-1V27h2v32h36V7h-8V5h9a1 1 0 0 1 1 1v54z" fill="#45b0d0" class="fill-000000"></path><path d="M35 5h2v2h-2zM45 5h2v2h-2zM48.373 47.209l-3.375-.964-.001-.507A6.99 6.99 0 0 0 48 40v-2c0-3.859-3.141-7-7-7s-7 3.141-7 7v2a6.993 6.993 0 0 0 3 5.736v.51l-3.374.963A5.023 5.023 0 0 0 30 52.018V55h22v-2.982a5.023 5.023 0 0 0-3.627-4.809zM36 40v-2c0-2.757 2.243-5 5-5s5 2.243 5 5v2c0 2.757-2.243 5-5 5s-5-2.243-5-5zm6.965 6.714L41 49.333l-1.965-2.619c.624.183 1.283.286 1.965.286s1.341-.103 1.965-.286zM50 53H32v-.982c0-1.332.895-2.519 2.176-2.885l3.437-.982L41 52.667l3.387-4.516 3.437.982A3.014 3.014 0 0 1 50 52.018V53zM27 13h2v2h-2zM31 13h24v2H31zM33 17h22v2H33zM33 21h22v2H33zM53 25h2v2h-2zM33 25h18v2H33z" fill="#45b0d0" class="fill-000000"></path></svg>