<svg viewBox="0 0 64 64" width = "32px" height = "30px" xml:space="preserve" xmlns="http://www.w3.org/2000/svg" enable-background="new 0 0 64 64"><path d="M31 15H15a1 1 0 0 1-1-1V6a1 1 0 0 1 1-1h16a1 1 0 0 1 1 1v8a1 1 0 0 1-1 1zM49 41H31a1 1 0 0 1-1-1V20a1 1 0 0 1 1-1h18a1 1 0 0 1 1 1v20a1 1 0 0 1-1 1z" fill="#00f4cb" class="fill-00f4cb"></path><path d="M58 5h-4V2a1 1 0 0 0-1-1H11a1 1 0 0 0-1 1v22.568A18.878 18.878 0 0 1 6 25H4c-1.654 0-3 1.346-3 3v4c0 1.654 1.346 3 3 3h2c1.355 0 2.694.149 4 .432V62a1 1 0 0 0 1 1h28a.988.988 0 0 0 .707-.294l13.999-13.999A.997.997 0 0 0 54 48V15h4c2.757 0 5-2.243 5-5s-2.243-5-5-5zm-4 4H41V7h13v2zm-15 2.92L36.601 10 39 8.08v3.84zM7 33.035v-6.069a20.726 20.726 0 0 0 10-3.109v12.287a20.715 20.715 0 0 0-10-3.109zM3 32v-4c0-.551.449-1 1-1h1v6H4c-.551 0-1-.449-1-1zm37 27.586V49h10.586L40 59.586zM52 47H39a1 1 0 0 0-1 1v13H12V35.992a18.778 18.778 0 0 1 4.438 2.168l1.008.672a.993.993 0 0 0 1.026.05A1 1 0 0 0 19 38V22a1 1 0 0 0-1.554-.832l-1.008.672A18.836 18.836 0 0 1 12 24.008V3h40v2H40c-.227 0-.447.077-.625.219l-5 4a1 1 0 0 0 0 1.562l5 4c.178.142.398.219.625.219h12v32zM41 13v-2h13v2H41zm17 0h-2V7h2c1.654 0 3 1.346 3 3s-1.346 3-3 3z" fill="#45b0d0" class="fill-000000"></path><circle cx="19" cy="10" r="1" fill="#45b0d0" class="fill-000000"></circle><circle cx="23" cy="10" r="1" fill="#45b0d0" class="fill-000000"></circle><circle cx="27" cy="10" r="1" fill="#45b0d0" class="fill-000000"></circle><path d="M34 24a1 1 0 0 0 1 1h10a1 1 0 0 0 0-2H35a1 1 0 0 0-1 1zM45 31H35a1 1 0 0 0 0 2h10a1 1 0 0 0 0-2zM45 35H35a1 1 0 0 0 0 2h10a1 1 0 0 0 0-2zM45 27h-3a1 1 0 0 0 0 2h3a1 1 0 0 0 0-2zM35 29h3a1 1 0 0 0 0-2h-3a1 1 0 0 0 0 2zM35 49h-8a1 1 0 0 0 0 2h8a1 1 0 0 0 0-2zM15 51h8a1 1 0 0 0 0-2h-8a1 1 0 0 0 0 2zM35 45H15a1 1 0 0 0 0 2h20a1 1 0 0 0 0-2zM35 53H15a1 1 0 0 0 0 2h20a1 1 0 0 0 0-2z" fill="#45b0d0" class="fill-000000"></path><circle cx="21" cy="58" r="1" fill="#45b0d0" class="fill-000000"></circle><circle cx="25" cy="58" r="1" fill="#45b0d0" class="fill-000000"></circle><circle cx="29" cy="58" r="1" fill="#45b0d0" class="fill-000000"></circle><path d="M21.414 32.829a.997.997 0 0 0 1.414 0C23.584 32.073 24 31.068 24 30s-.416-2.073-1.171-2.828a.999.999 0 1 0-1.414 1.414c.377.377.585.88.585 1.414s-.208 1.037-.586 1.415a.999.999 0 0 0 0 1.414z" fill="#45b0d0" class="fill-000000"></path><path d="M24.243 25.757C25.376 26.891 26 28.397 26 30s-.624 3.109-1.757 4.243a.999.999 0 1 0 1.414 1.414C27.168 34.146 28 32.137 28 30s-.832-4.146-2.343-5.657a.999.999 0 1 0-1.414 1.414z" fill="#45b0d0" class="fill-000000"></path></svg>