<?xml version="1.0" ?><svg viewBox="0 0 64 64" xmlns="http://www.w3.org/2000/svg" width="64px" height="64px"><g data-name="04-Bible" id="_04-Bible"><path d="M53,53v2a2.006,2.006,0,0,1-2,2H47V53Z" style="fill:#e9edf5"/><path d="M53,49v4H35v4H17a6,6,0,0,1,0-12H53Z" style="fill:#e9edf5"/><path d="M17,45a5.984,5.984,0,0,0-5.65,8A6,6,0,0,1,17,49H53V45Z" style="fill:#dce1eb"/><path d="M17,1V45a6,6,0,0,0-6,6V7A6,6,0,0,1,17,1Z" style="fill:#64e1dc"/><path d="M53,3V45H17V1H51A2.006,2.006,0,0,1,53,3ZM45,20V14H38V8H32v6H25v6h7V34h6V20Z" style="fill:#b674f2"/><rect height="6" style="fill:#a260e5" width="3" x="29" y="8"/><rect height="14" style="fill:#a260e5" width="3" x="29" y="20"/><path d="M51,1H48a2.006,2.006,0,0,1,2,2V45h3V3A2.006,2.006,0,0,0,51,1Z" style="fill:#a260e5"/><rect height="6" style="fill:#a260e5" width="3" x="22" y="14"/><polygon points="47 57 47 63 41 57 35 63 35 57 35 53 47 53 47 57" style="fill:#ffa426"/><polygon points="45 14 45 20 38 20 38 34 32 34 32 20 25 20 25 14 32 14 32 8 38 8 38 14 45 14" style="fill:#ffa426"/><rect height="3" style="fill:#ffda45" width="7" x="25" y="14"/><rect height="3" style="fill:#ffda45" width="6" x="32" y="8"/><rect height="3" style="fill:#ffda45" width="7" x="38" y="14"/><rect height="2" style="fill:#e0b8ff" width="2" x="24" y="37"/><rect height="2" style="fill:#e0b8ff" width="18" x="28" y="37"/><path d="M53,45V55a2.006,2.006,0,0,1-2,2H47" style="fill:none;stroke:#000;stroke-linejoin:round;stroke-width:2px"/><path d="M35,57H17a6,6,0,0,1,0-12V1a6,6,0,0,0-6,6V51" style="fill:none;stroke:#000;stroke-linejoin:round;stroke-width:2px"/><path d="M17,1H51a2.006,2.006,0,0,1,2,2V45H17" style="fill:none;stroke:#000;stroke-linejoin:round;stroke-width:2px"/><line style="fill:none;stroke:#000;stroke-linejoin:round;stroke-width:2px" x1="17" x2="15" y1="53" y2="53"/><polyline points="53 53 47 53 35 53 19 53" style="fill:none;stroke:#000;stroke-linejoin:round;stroke-width:2px"/><line style="fill:none;stroke:#000;stroke-linejoin:round;stroke-width:2px" x1="53" x2="15" y1="49" y2="49"/><polyline points="35 53 35 57 35 63 41 57 47 63 47 57 47 53" style="fill:none;stroke:#000;stroke-linejoin:round;stroke-width:2px"/><polygon points="45 14 38 14 38 8 32 8 32 14 25 14 25 20 32 20 32 34 38 34 38 20 45 20 45 14" style="fill:none;stroke:#000;stroke-linejoin:round;stroke-width:2px"/><line style="fill:none;stroke:#000;stroke-linejoin:round;stroke-width:2px" x1="24" x2="26" y1="38" y2="38"/><line style="fill:none;stroke:#000;stroke-linejoin:round;stroke-width:2px" x1="28" x2="46" y1="38" y2="38"/></g></svg>