<svg viewBox="0 0 64 64" xmlns="http://www.w3.org/2000/svg" width="32px" height="32px"><g data-name="Layer 31"><path d="M16 15H8a2 2 0 0 0-2 2v8a2 2 0 0 0 2 2h8a2 2 0 0 0 2-2v-8a2 2 0 0 0-2-2ZM8 25v-8h8v8ZM32 19h-8a2 2 0 0 0-2 2v7a2 2 0 0 0 2 2h8a2 2 0 0 0 2-2v-7a2 2 0 0 0-2-2Zm-8 9v-7h8v7Z" fill="#45b0d0" class="fill-000000"></path><path d="M51 3v4H37a2 2 0 0 0-2 2v6H21v-2a2 2 0 0 0-2-2H5a2 2 0 0 0-2 2v46a2 2 0 0 0 2 2h14a2 2 0 0 0 1-.28 2 2 0 0 0 1 .28h14a2 2 0 0 0 1-.28 2 2 0 0 0 1 .28h24V3Zm2 2h6v6h-6V5Zm0 8h6v38h-6ZM5 59V13h14v46Zm16 0V17h14v42Zm16 0V9h14v50Zm16 0v-6h6v6Z" fill="#45b0d0" class="fill-000000"></path><path d="M48 11h-8a2 2 0 0 0-2 2v9a2 2 0 0 0 2 2h8a2 2 0 0 0 2-2v-9a2 2 0 0 0-2-2Zm-8 11v-9h8v9ZM7 40h10v2H7zM7 44h10v2H7zM7 48h10v2H7zM23 42h10v2H23zM23 46h10v2H23zM23 50h10v2H23zM39 38h10v2H39zM39 42h10v2H39zM39 46h10v2H39z" fill="#45b0d0" class="fill-000000"></path></g></svg>