<?xml version="1.0" ?><svg viewBox="0 0 64 64" xmlns="http://www.w3.org/2000/svg" width="64px" height="64px"><title/><g data-name="54-woman" id="_54-woman"><circle cx="32" cy="47" r="2" style="fill:#b25e1e"/><path d="M35.97,32.94l1.69-1.28A8.014,8.014,0,0,0,40,26v-.9a10.682,10.682,0,0,0,2,.9h3.24A32.172,32.172,0,0,0,45,30v5l-3-3-3,3H36V33Z" style="fill:#704021"/><path d="M28.03,32.94,28,33v2H25l-3-3-3,3V30a31.044,31.044,0,0,0-.15-3.12C21.24,26.2,22.32,22.6,23,19l1,7A7.974,7.974,0,0,0,28.03,32.94Z" style="fill:#704021"/><path d="M40,25.1C32.83,21.01,31.84,10,30,10a1.959,1.959,0,0,0-2,2,4.38,4.38,0,0,0-3-1c-1,0-1.25,4-2,8-.68,3.6-1.76,7.2-4.15,7.88A79.119,79.119,0,0,1,18,15a14,14,0,0,1,28,0,69.667,69.667,0,0,1-.76,11H42A10.682,10.682,0,0,1,40,25.1Z" style="fill:#b25e1e"/><path d="M45.24,22H42a10.682,10.682,0,0,1-2-.9C32.83,17.01,31.84,6,30,6a1.959,1.959,0,0,0-2,2,4.38,4.38,0,0,0-3-1c-1,0-1.25,4-2,8-.68,3.6-1.76,7.2-4.15,7.88-.232-2.358-.664-4.311-.8-8.793-.02.3-.046.605-.046.913a79.119,79.119,0,0,0,.85,11.88C21.24,26.2,22.32,22.6,23,19c.75-4,1-8,2-8a4.38,4.38,0,0,1,3,1,1.959,1.959,0,0,1,2-2c1.84,0,2.83,11.01,10,15.1a10.682,10.682,0,0,0,2,.9h3.24A69.667,69.667,0,0,0,46,15c0-.3-.026-.6-.046-.9A69.863,69.863,0,0,1,45.24,22Z" style="fill:#d1813b"/><path d="M28,35V33l.03-.06A7.853,7.853,0,0,0,32,34a7.954,7.954,0,0,0,3.97-1.06L36,33v3.31a1.962,1.962,0,0,0,.44,1.25L32,42l-4.44-4.44A1.962,1.962,0,0,0,28,36.31Z" style="fill:#ffb680"/><path d="M36,38l.44-.44A1.962,1.962,0,0,1,36,36.31Z" style="fill:#eb975d"/><path d="M32,37a7.954,7.954,0,0,0,3.97-1.06L36,36V33l-.03-.06A7.954,7.954,0,0,1,32,34a7.853,7.853,0,0,1-3.97-1.06L28,33v3l.03-.06A7.853,7.853,0,0,0,32,37Z" style="fill:#eb975d"/><path d="M28,36.31a1.962,1.962,0,0,1-.44,1.25L28,38Z" style="fill:#eb975d"/><rect height="6" style="fill:#ffb680" width="6" x="45" y="57"/><rect height="6" style="fill:#ffb680" width="6" x="13" y="57"/><path d="M40,25.1V26a8.014,8.014,0,0,1-2.34,5.66l-1.69,1.28A7.954,7.954,0,0,1,32,34a7.853,7.853,0,0,1-3.97-1.06A7.974,7.974,0,0,1,24,26l-1-7c.75-4,1-8,2-8a4.38,4.38,0,0,1,3,1,1.959,1.959,0,0,1,2-2C31.84,10,32.83,21.01,40,25.1Z" style="fill:#ffdaaa"/><path d="M30,10a1.959,1.959,0,0,0-2,2,4.38,4.38,0,0,0-3-1c-1,0-1.25,4-2,8l.236,1.652C23.815,17.149,24.113,14,25,14a4.38,4.38,0,0,1,3,1,1.959,1.959,0,0,1,2-2c1.818,0,2.811,10.745,9.751,14.946A7.951,7.951,0,0,0,40,26v-.9C32.83,21.01,31.84,10,30,10Z" style="fill:#ffb680"/><path d="M32,45a2,2,0,1,0,2,2A2.006,2.006,0,0,0,32,45ZM45,57v6H19V57H13V44.25a3.994,3.994,0,0,1,3.18-3.92l10.15-2.05a1.993,1.993,0,0,0,1.23-.72L32,42l4.44-4.44a1.993,1.993,0,0,0,1.23.72l10.15,2.05A3.994,3.994,0,0,1,51,44.25V57Z" style="fill:#e9edf5"/><path d="M32,52a1.991,1.991,0,0,0,1.307-3.5,1.958,1.958,0,0,1-2.614,0A1.991,1.991,0,0,0,32,52Z" style="fill:#afb4c8"/><path d="M47.82,40.33,37.67,38.28a1.993,1.993,0,0,1-1.23-.72L32,42l-4.44-4.44a1.993,1.993,0,0,1-1.23.72L16.18,40.33A3.994,3.994,0,0,0,13,44.25v3a3.994,3.994,0,0,1,3.18-3.92l10.15-2.05a1.993,1.993,0,0,0,1.23-.72L32,45l4.44-4.44a1.993,1.993,0,0,0,1.23.72l10.15,2.05A3.994,3.994,0,0,1,51,47.25v-3A3.994,3.994,0,0,0,47.82,40.33Z" style="fill:#afb4c8"/><path d="M23,19l1,7a7.974,7.974,0,0,0,4.03,6.94A7.853,7.853,0,0,0,32,34a7.954,7.954,0,0,0,3.97-1.06l1.69-1.28A8.014,8.014,0,0,0,40,26V25" style="fill:none;stroke:#000;stroke-linejoin:round;stroke-width:2px"/><path d="M36,33v3.31a1.962,1.962,0,0,0,.44,1.25,1.993,1.993,0,0,0,1.23.72l10.15,2.05A3.994,3.994,0,0,1,51,44.25V63H13V44.25a3.994,3.994,0,0,1,3.18-3.92l10.15-2.05a1.993,1.993,0,0,0,1.23-.72A1.962,1.962,0,0,0,28,36.31V33" style="fill:none;stroke:#000;stroke-linejoin:round;stroke-width:2px"/><polyline points="19 63 19 57 19 50" style="fill:none;stroke:#000;stroke-linejoin:round;stroke-width:2px"/><polyline points="45 63 45 57 45 50" style="fill:none;stroke:#000;stroke-linejoin:round;stroke-width:2px"/><path d="M28,35H25l-3-3-3,3V30a31.044,31.044,0,0,0-.15-3.12A79.119,79.119,0,0,1,18,15a14,14,0,0,1,28,0,69.667,69.667,0,0,1-.76,11A32.172,32.172,0,0,0,45,30v5l-3-3-3,3H36" style="fill:none;stroke:#000;stroke-linejoin:round;stroke-width:2px"/><line style="fill:none;stroke:#000;stroke-linejoin:round;stroke-width:2px" x1="51" x2="45" y1="57" y2="57"/><line style="fill:none;stroke:#000;stroke-linejoin:round;stroke-width:2px" x1="19" x2="13" y1="57" y2="57"/><path d="M46,26H42a10.682,10.682,0,0,1-2-.9C32.83,21.01,31.84,10,30,10a1.959,1.959,0,0,0-2,2,4.38,4.38,0,0,0-3-1c-1,0-1.25,4-2,8-.68,3.6-1.76,7.2-4.15,7.88A2.96,2.96,0,0,1,18,27" style="fill:none;stroke:#000;stroke-linejoin:round;stroke-width:2px"/><polyline points="27 37 27.56 37.56 32 42 36.44 37.56 37 37" style="fill:none;stroke:#000;stroke-linejoin:round;stroke-width:2px"/><line style="fill:none;stroke:#000;stroke-linejoin:round;stroke-width:2px" x1="32" x2="32" y1="42" y2="45"/><circle cx="32" cy="47" r="2" style="fill:none;stroke:#000;stroke-linejoin:round;stroke-width:2px"/></g></svg>