<svg xmlns="http://www.w3.org/2000/svg" version="1.0" viewBox="0 0 48 48" width="32px" height="32px" xml:space="preserve"><path d="M7 36V26a1 1 0 0 1 2 0v10c0 .552.449 1 1 1h20a1 1 0 0 0 1-1V8c0-.551-.448-1-1-1h-2a1 1 0 1 1 0-2h2c1.654 0 3 1.346 3 3v28c0 1.654-1.346 3-3 3H10c-1.654 0-3-1.346-3-3zM37 6a1 1 0 1 0-2 0v32c0 1.654-1.346 3-3 3H8a1 1 0 1 0 0 2h24c2.757 0 5-2.243 5-5V6zm3-1a1 1 0 0 0-1 1v34a1 1 0 0 1-1 1 1 1 0 1 0 0 2c1.654 0 3-1.346 3-3V6a1 1 0 0 0-1-1zM28 25h-9a1 1 0 0 0 0 2h9a1 1 0 1 0 0-2zm-13 0h-3a1 1 0 0 0 0 2h3a1 1 0 0 0 0-2zm-8-4V10.829c0-.801.312-1.555.879-2.122l2.828-2.828A2.978 2.978 0 0 1 12.829 5H23c1.103 0 2 .897 2 2v14c0 1.103-.897 2-2 2H9c-1.103 0-2-.897-2-2zm2 0h14V7H12.829a.996.996 0 0 0-.708.293l-2.828 2.828a.996.996 0 0 0-.293.708V21zm7-6c1.326 0 2.4-1.343 2.4-3S17.326 9 16 9s-2.4 1.343-2.4 3 1.074 3 2.4 3zm12 14h-9a1 1 0 1 0 0 2h9a1 1 0 1 0 0-2zm-13 0h-3a1 1 0 1 0 0 2h3a1 1 0 1 0 0-2zm13 4h-9a1 1 0 1 0 0 2h9a1 1 0 1 0 0-2zm-13 0h-3a1 1 0 1 0 0 2h3a1 1 0 1 0 0-2zm1-17a4.989 4.989 0 0 0-4.15 2.219.506.506 0 0 0 .424.781h7.453c.399 0 .645-.45.424-.781A4.992 4.992 0 0 0 16 16z" fill="#45b0d0" class="fill-000000"></path></svg>