<svg viewBox="0 0 32 32" xmlns="http://www.w3.org/2000/svg" width="32px" height="30px"><path d="M6.23 20.93A5.9 5.9 0 0 1 2.54 19 6 6 0 0 0 1 23v3a1 1 0 0 0 1 1h4.18A3 3 0 0 1 6 26v-3a9.45 9.45 0 0 1 .23-2.07ZM9.78 15.2A6.91 6.91 0 0 1 9 12v-1.44A3.91 3.91 0 0 0 7 10a4 4 0 0 0-4 4v1a4 4 0 0 0 3.85 4 10 10 0 0 1 2.93-3.8ZM29.46 19a5.9 5.9 0 0 1-3.69 1.93A9.45 9.45 0 0 1 26 23v3a3 3 0 0 1-.18 1H30a1 1 0 0 0 1-1v-3a6 6 0 0 0-1.54-4ZM29 15v-1a4 4 0 0 0-4-4 3.91 3.91 0 0 0-2 .56V12a6.91 6.91 0 0 1-.78 3.2 10 10 0 0 1 2.93 3.8A4 4 0 0 0 29 15ZM21.07 16.82a7 7 0 0 1-10.14 0A8 8 0 0 0 8 23v3a1 1 0 0 0 1 1h14a1 1 0 0 0 1-1v-3a8 8 0 0 0-2.93-6.18Z" fill="#45b0d0" class="fill-000000"></path><path d="M16 17a5 5 0 0 0 5-5v-2a5 5 0 0 0-10 0v2a5 5 0 0 0 5 5Z" fill="#45b0d0" class="fill-000000"></path></svg>