<svg xmlns="http://www.w3.org/2000/svg" viewBox="0 0 1500 1500" width="100px" height="100px" xml:space="preserve" enable-background="new 0 0 1500 1500"><path d="M1228.33 590.61V444.97c-80.44 0-145.64 65.21-145.64 145.64s65.21 145.64 145.64 145.64c80.44 0 145.64-65.21 145.64-145.64h-145.64z" fill="#ffb53d" class="fill-ffb53d"></path><path d="M1387 576.75c-.62-25.07-5.18-45.57-14.3-63.8l-131.35 63.8H1387z" fill="#ef4743" class="fill-ef4743"></path><path d="M1372.7 497c-25.07-45.57-76.95-79.75-129.89-79.75v145.64L1372.7 497z" fill="#417ff0" class="fill-417ff0"></path><path d="M1265.84 947v79.17M1305.42 986.59h-79.17" fill="none" stroke="#c1c2c6" stroke-width="11" stroke-linecap="round" stroke-linejoin="round" stroke-miterlimit="10" class="stroke-c1c2c6"></path><circle cx="1326.47" cy="1112.61" r="21.35" fill="#c1c2c6" class="fill-c1c2c6"></circle><path d="M228.67 359v74.66M191.34 396.33H266" fill="none" stroke="#c1c2c6" stroke-width="11" stroke-linecap="round" stroke-linejoin="round" stroke-miterlimit="10" class="stroke-c1c2c6"></path><circle cx="171.94" cy="536.57" r="19.8" fill="#c1c2c6" class="fill-c1c2c6"></circle><path d="M671.17 898.31H858.8v212.13H671.17z" fill="#221f44" class="fill-221f44"></path><path d="M639.66 892.9h187.63v212.13H639.66z" fill="#417ff0" class="fill-417ff0"></path><path d="M564.14 1105.03h397.4v42.37h-397.4z" fill="#ef4743" class="fill-ef4743"></path><path d="M533.28 1105.03h397.4v42.37h-397.4z" fill="#ffb53d" class="fill-ffb53d"></path><path d="M375.56 936.57h766.65v69.49H375.56z" fill="#ef4743" class="fill-ef4743"></path><path d="M345.11 936.57h766.65v69.49H345.11z" fill="#ffb53d" class="fill-ffb53d"></path><path d="M393.69 423.39h730.91v513.19H393.69z" fill="#221f44" class="fill-221f44"></path><path d="M362.98 422.2h730.91v514.37H362.98z" fill="#417ff0" class="fill-417ff0"></path><path d="M375.56 358.56h766.65v69.49H375.56z" fill="#ef4743" class="fill-ef4743"></path><path d="M345.11 358.56h766.65v69.49H345.11z" fill="#ffb53d" class="fill-ffb53d"></path><path d="m479 704.36-.44 172.85M603.25 641.47l-.45 235.74" fill="none" stroke="#69a6ff" stroke-width="8.9722" stroke-miterlimit="10" class="stroke-69a6ff"></path><path d="M478.78 704.89c37.98-60.29 99.18-65.57 123.65-65.57 65.74 0 111.81 30.67 132.21 30.67 62.84 0 102.9-72.36 118.46-90.96 39.64-47.37 85.32-64.52 115.28-64.52" fill="none" stroke="#edde0e" stroke-width="9.6672" stroke-miterlimit="10" class="stroke-ffffff"></path><path d="m735.95 675.64-.45 201.57M859.14 579.93l-.45 297.28M978.09 511.3l-.45 365.91" fill="none" stroke="#69a6ff" stroke-width="8.9722" stroke-miterlimit="10" class="stroke-69a6ff"></path><circle cx="478.78" cy="709.48" r="13.53" fill="#ffb53d" class="fill-ffb53d"></circle><circle cx="602.88" cy="638.9" r="13.53" fill="#ffb53d" class="fill-ffb53d"></circle><circle cx="736.41" cy="672.92" r="13.53" fill="#ffb53d" class="fill-ffb53d"></circle><circle cx="858.49" cy="576.31" r="13.53" fill="#ffb53d" class="fill-ffb53d"></circle><circle cx="978.36" cy="514.01" r="13.53" fill="#ffb53d" class="fill-ffb53d"></circle><path d="M461.11 1149.08V763.59l-300.29-1.63v332.29c0 30.28 24.55 54.83 54.83 54.83h245.46z" fill="#ef4743" class="fill-ef4743"></path><path d="M516.46 1093.17c-.1-27.25-13.13-38.44-21.33-38.44H252.35s23.6 8.1 18.05 43.04c-6.75 42.49-45.9 51.32-45.9 51.32h236.53c30.61-.01 55.53-28.67 55.43-55.92z" fill="#221f44" class="fill-221f44"></path><path d="M213.74 906.38h48.65v74.04h-48.65zM287.78 874.65h48.65v105.77h-48.65zM359.7 834.45h48.65v145.96H359.7z" fill="#edde0e" class="fill-ffffff"></path><path d="M190.67 1017.46H425.7" fill="none" stroke="#edde0e" stroke-width="8" stroke-miterlimit="10" class="stroke-ffffff"></path></svg>