<svg xmlns="http://www.w3.org/2000/svg" viewBox="0 0 512 512" xml:space="preserve" enable-background="new 0 0 512 512" width="32px" height="30px"><path d="M399.578 285.009v162.912c0 16.344-13.2 29.544-29.544 29.544H141.922c-16.3 0-29.5-13.199-29.5-29.544v-322.9c0-16.3 13.2-29.5 29.5-29.5h42.743v49.653h142.67V95.521h42.699c16.344 0 29.544 13.2 29.544 29.5v138.993" fill="none" stroke="#45b0d0" stroke-width="8.8587" stroke-linecap="round" stroke-linejoin="round" stroke-miterlimit="10" class="stroke-000000"></path><path d="M141.523 228.402v219.519c0 .266.177.443.399.443h228.112c.266 0 .443-.177.443-.443v-322.9c0-.221-.177-.399-.443-.399h-42.699v20.552h-142.67v-20.552h-42.743a.398.398 0 0 0-.399.399v82.386" fill="none" stroke="#45b0d0" stroke-width="8.8587" stroke-linecap="round" stroke-linejoin="round" stroke-miterlimit="10" class="stroke-000000"></path><path d="M327.346 95.714v49.476H184.643V95.714c0-13.618 11.04-24.658 24.658-24.658h7.899c1.237-20.37 18.151-36.521 38.813-36.521 20.661 0 37.576 16.151 38.813 36.521h7.862c13.618 0 24.658 11.04 24.658 24.658z" fill="none" stroke="#45b0d0" stroke-width="8.8587" stroke-linecap="round" stroke-linejoin="round" stroke-miterlimit="10" class="stroke-000000"></path><circle cx="256.001" cy="73.421" r="18.267" fill="none" stroke="#45b0d0" stroke-width="8.8587" stroke-linecap="round" stroke-linejoin="round" stroke-miterlimit="10" class="stroke-000000"></circle><path d="M238.452 204.987c0 18.737-15.17 33.908-33.908 33.908-18.696 0-33.867-15.17-33.867-33.908 0-18.696 15.17-33.867 33.867-33.867 18.738 0 33.908 15.171 33.908 33.867z" fill="none" stroke="#45b0d0" stroke-width="8.8587" stroke-linecap="round" stroke-linejoin="round" stroke-miterlimit="10" class="stroke-000000"></path><path d="m191.974 207.586 6.675 6.675 18.506-18.506M271.153 188.893h70.159M271.153 221.122h48.513M238.452 295.42c0 18.737-15.17 33.908-33.908 33.908-18.696 0-33.867-15.17-33.867-33.908 0-18.696 15.17-33.867 33.867-33.867 18.738 0 33.908 15.171 33.908 33.867z" fill="none" stroke="#45b0d0" stroke-width="8.8587" stroke-linecap="round" stroke-linejoin="round" stroke-miterlimit="10" class="stroke-000000"></path><path d="m191.974 298.019 6.675 6.675 18.506-18.506M271.153 279.326h70.159M271.153 311.555h48.513M238.452 385.853c0 18.737-15.17 33.908-33.908 33.908-18.696 0-33.867-15.17-33.867-33.908 0-18.696 15.17-33.867 33.867-33.867 18.738 0 33.908 15.171 33.908 33.867z" fill="none" stroke="#45b0d0" stroke-width="8.8587" stroke-linecap="round" stroke-linejoin="round" stroke-miterlimit="10" class="stroke-000000"></path><path d="m191.974 388.452 6.675 6.674 18.506-18.506M271.153 369.759h70.159M271.153 401.988h48.513" fill="none" stroke="#45b0d0" stroke-width="8.8587" stroke-linecap="round" stroke-linejoin="round" stroke-miterlimit="10" class="stroke-000000"></path></svg>