<svg viewBox="0 0 512 512" width="32px" height="30px" xmlns="http://www.w3.org/2000/svg"><rect fill="#45b0d0" height="464" rx="24" width="272" x="216" y="24" class="fill-5ec09b"></rect><path fill="#dae5e1" d="M288 200h112v112H288zM288 56h112v112H288zM288 344h112v112H288z" class="fill-dae5e1"></path><path d="M336 136a8 8 0 0 1-5.657-2.343l-16-16a8 8 0 0 1 11.314-11.314L336 116.688l26.341-26.344a8 8 0 0 1 11.315 11.312l-32 32A8 8 0 0 1 336 136Z" fill="#f98800" class="fill-f98800"></path><path d="M72 312v112a8 8 0 0 0 8 8h56a8 8 0 0 0 8-8v-8a16 16 0 0 1 16-16 16 16 0 0 1 16 16v8a8 8 0 0 0 8 8h56a8 8 0 0 0 8-8V312Z" fill="#eceff0" class="fill-eceff0"></path><path d="M208 312v120h32a8 8 0 0 0 8-8V312ZM112 432a48 48 0 0 1 48-48v16a16 16 0 0 0-16 16v8a8 8 0 0 1-8 8Z" fill="#d1e1e5" class="fill-d1e1e5"></path><path d="M248 232v-88a88 88 0 0 0-88-88 88 88 0 0 0-88 88v88a48 48 0 0 0-48 48v56h48v-24h176v-32h64v-48Z" fill="#eceff0" class="fill-eceff0"></path><path d="M72 320a8 8 0 0 1-8-8v-32a8 8 0 0 1 16 0v32a8 8 0 0 1-8 8ZM248 144a88 88 0 0 0-88-88 87.92 87.92 0 0 0-73.762 40H168a40 40 0 0 1 40 40v176h40Z" fill="#d1e1e5" class="fill-d1e1e5"></path><rect fill="#fac8b2" height="96" rx="24" width="96" x="112" y="128" class="fill-fac8b2"></rect><circle cx="136" cy="152" fill="#f97d7d" r="8" class="fill-f97d7d"></circle><circle cx="184" cy="152" fill="#f97d7d" r="8" class="fill-f97d7d"></circle><path d="M192 208h-64a56 56 0 0 1 0-112h64a56 56 0 0 1 0 112Zm-64-96a40 40 0 0 0 0 80h64a40 40 0 0 0 0-80Z" fill="#00a8e7" class="fill-00a8e7"></path><path d="M160 112a8 8 0 0 1-8-8V56a8 8 0 0 1 16 0v48a8 8 0 0 1-8 8ZM160 408a8 8 0 0 1-8-8V232a8 8 0 0 1 16 0v168a8 8 0 0 1-8 8Z" fill="#00a8e7" class="fill-00a8e7"></path><path fill="#ffdb43" d="M96 192h32v48H96zM192 192h32v48h-32z" class="fill-ffdb43"></path><path d="M144 184v16h-16v32h64v-32h-16v-16a16 16 0 0 0-16-16 16 16 0 0 0-16 16Z" fill="#45b0d0" class="fill-5ec09b"></path><rect fill="#00a8e7" height="16" rx="8" width="192" x="64" y="304" class="fill-00a8e7"></rect><path fill="#fcc200" d="M96 216h32v24H96zM192 216h32v24h-32z" class="fill-fcc200"></path><path fill="#45b0d0" d="M128 216h64v16h-64zM176 200h-16v-32a16 16 0 0 1 16 16Z" class="fill-42a87e"></path><path d="M80 432v24h-8a16 16 0 0 0-16 16v16h80v-56ZM240 432v24h8a16 16 0 0 1 16 16v16h-80v-56ZM56 368a16 16 0 0 1-16 16 16 16 0 0 1-16-16v-32h48v16a16 16 0 0 1-16 16ZM344 264a16 16 0 0 0 16-16 16 16 0 0 0-16-16h-32v48h16a16 16 0 0 0 16-16Z" fill="#00a8e7" class="fill-00a8e7"></path><path fill="#d1e1e5" d="M248 264h64v16h-64z" class="fill-d1e1e5"></path><path fill="#0598c6" d="M208 432h32v24h-32zM112 432h24v56h-24zM56 336h16v16a16 16 0 0 1-16 16v-32ZM328 280h-16v-16h32a16 16 0 0 1-16 16Z" class="fill-0598c6"></path><path d="M336 424a8 8 0 0 1-5.657-2.343l-16-16a8 8 0 0 1 11.314-11.314L336 404.687l26.341-26.344a8 8 0 0 1 11.315 11.312l-32 32A8 8 0 0 1 336 424Z" fill="#f98800" class="fill-f98800"></path><path d="M456 120h-24a8 8 0 0 1 0-16h24a8 8 0 0 1 0 16ZM456 152h-24a8 8 0 0 1 0-16h24a8 8 0 0 1 0 16ZM456 88h-24a8 8 0 0 1 0-16h24a8 8 0 0 1 0 16ZM456 264h-24a8 8 0 0 1 0-16h24a8 8 0 0 1 0 16ZM456 296h-24a8 8 0 0 1 0-16h24a8 8 0 0 1 0 16ZM456 232h-24a8 8 0 0 1 0-16h24a8 8 0 0 1 0 16ZM456 408h-24a8 8 0 0 1 0-16h24a8 8 0 0 1 0 16ZM456 440h-24a8 8 0 0 1 0-16h24a8 8 0 0 1 0 16ZM456 376h-24a8 8 0 0 1 0-16h24a8 8 0 0 1 0 16Z" fill="#45b0d0" class="fill-42a87e"></path><path d="M464 16H240a32.036 32.036 0 0 0-32 32v12.887C145.471 23.738 63.286 70.859 64 144v80.568A56.089 56.089 0 0 0 16 280v88c.5 27.038 37.358 33.062 46.629 8H64v48a16 16 0 0 0 8 13.835V448a24.027 24.027 0 0 0-24 24v16a8 8 0 0 0 8 8h80a8 8 0 0 0 8-8v-50.165A16 16 0 0 0 152 424v-8c.4-10.6 15.6-10.6 16 0v8a16 16 0 0 0 8 13.835V488a8 8 0 0 0 8 8h280a32.036 32.036 0 0 0 32-32V48a32.036 32.036 0 0 0-32-32ZM296 288h32a24.044 24.044 0 0 0 22.969-17.031C377.011 262.5 371.7 224.66 344 224h-48v-16h96v96h-96Zm48-48c10.6.4 10.6 15.6 0 16a8 8 0 0 0-8 8 8.009 8.009 0 0 1-8 8h-8v-32Zm-40 0v32h-56a8 8 0 0 0-8 8v24h-72v-64h16a8 8 0 0 0 8 8h32a8 8 0 0 0 8-8v-48c0-.265-.015-.526-.04-.784a56.232 56.232 0 0 0 8.04-10.331V232a8 8 0 0 0 8 8ZM192 112c38.3.2 54.538 48.933 24 72v-32a32.036 32.036 0 0 0-32-32h-48a32.036 32.036 0 0 0-32 32v32c-19.273-13.947-21.459-43.73-4.28-60.282A39.7 39.7 0 0 1 128 112Zm-40 80v-8a8 8 0 0 1 16 0v8Zm8-32a24.028 24.028 0 0 0-24 24v8a8 8 0 0 0-8-8h-8v-32a16.019 16.019 0 0 1 16-16h48a16.019 16.019 0 0 1 16 16v32h-8a8 8 0 0 0-8 8v-8a24.028 24.028 0 0 0-24-24Zm40 40h16v32h-16Zm-96 0h16v32h-16Zm32 8h48v16h-48Zm56-112h-24V64.4a80.2 80.2 0 0 1 67 51.771A55.9 55.9 0 0 0 192 96Zm-40-31.6V96h-24a55.734 55.734 0 0 0-42.97 20.1A80.194 80.194 0 0 1 152 64.4ZM32 280a40.045 40.045 0 0 1 40-40 8 8 0 0 0 8-8v-51.162a55.9 55.9 0 0 0 8.04 10.37c-.026.26-.04.524-.04.792v48a8 8 0 0 0 8 8h32a8 8 0 0 0 8-8h16v64H80v-24a8 8 0 0 0-16 0v48H32Zm24 80a8 8 0 0 0-8 8 8 8 0 0 1-16 0v-24h32v16Zm72 120H64v-8a8.009 8.009 0 0 1 8-8h8a8 8 0 0 0 8-8v-16h40Zm8-64v8H80V320h72v73.376A24.039 24.039 0 0 0 136 416Zm32-22.624V320h72v104h-56v-8a24.039 24.039 0 0 0-16-22.624ZM240 480h-48v-40h40v16a8 8 0 0 0 8 8h8a8.009 8.009 0 0 1 8 8v8Zm240-16a16.019 16.019 0 0 1-16 16H272v-8a24.027 24.027 0 0 0-24-24v-10.165A16 16 0 0 0 256 424V288h24v24a8 8 0 0 0 8 8h112a8 8 0 0 0 8-8V200a8 8 0 0 0-8-8H288a8 8 0 0 0-8 8v24h-24v-80a95.78 95.78 0 0 0-32-71.488V48a16.019 16.019 0 0 1 16-16h224a16.019 16.019 0 0 1 16 16ZM400 48H288a8 8 0 0 0-8 8v112a8 8 0 0 0 8 8h112a8 8 0 0 0 8-8V56a8 8 0 0 0-8-8Zm-8 112h-96V64h96Zm8 176H288a8 8 0 0 0-8 8v112a8 8 0 0 0 8 8h112a8 8 0 0 0 8-8V344a8 8 0 0 0-8-8Zm-8 112h-96v-96h96ZM144 152a8 8 0 0 1-8 8c-10.6-.392-10.6-15.609 0-16a8 8 0 0 1 8 8Zm40 8a8 8 0 0 1-8-8c.392-10.6 15.609-10.6 16 0a8 8 0 0 1-8 8Zm130.343-42.342c-7.23-7.749 3.569-18.541 11.314-11.314L336 116.688l26.341-26.344c7.732-7.225 18.55 3.556 11.315 11.312l-32 32a8 8 0 0 1-11.314 0Zm0 288c-7.23-7.749 3.569-18.541 11.314-11.314L336 404.687l26.341-26.344c7.732-7.225 18.55 3.556 11.315 11.312l-32 32a8 8 0 0 1-11.314 0ZM464 112a8 8 0 0 1-8 8h-24c-10.594-.389-10.6-15.607 0-16h24a8 8 0 0 1 8 8Zm0 32a8 8 0 0 1-8 8h-24c-10.594-.389-10.6-15.607 0-16h24a8 8 0 0 1 8 8Zm0-64a8 8 0 0 1-8 8h-24c-10.594-.389-10.6-15.607 0-16h24a8 8 0 0 1 8 8Zm0 176a8 8 0 0 1-8 8h-24c-10.594-.389-10.6-15.607 0-16h24a8 8 0 0 1 8 8Zm0 32a8 8 0 0 1-8 8h-24c-10.594-.389-10.6-15.607 0-16h24a8 8 0 0 1 8 8Zm0-64a8 8 0 0 1-8 8h-24c-10.594-.389-10.6-15.607 0-16h24a8 8 0 0 1 8 8Zm0 176a8 8 0 0 1-8 8h-24c-10.594-.389-10.6-15.607 0-16h24a8 8 0 0 1 8 8Zm0 32a8 8 0 0 1-8 8h-24c-10.594-.389-10.6-15.607 0-16h24a8 8 0 0 1 8 8Zm0-64a8 8 0 0 1-8 8h-24c-10.594-.389-10.6-15.607 0-16h24a8 8 0 0 1 8 8Z" fill="#000000" class="fill-000000"></path></svg>