<svg viewBox="0 0 20 20" xmlns="http://www.w3.org/2000/svg" width="32px" height="28px"><path d="M9 0v1H3.5a.5.5 0 0 0-.5.5v4a.5.5 0 0 0 .5.5H9v10h1V6h5a.5.5 0 0 0 .248-.066l3.5-2a.5.5 0 0 0 0-.868l-3.5-2A.5.5 0 0 0 15 1h-5V0H9zM4 2h10.867l2.625 1.5L14.867 5H4V2zm4 10.059c-1.936.123-3.682.47-5.045 1-.854.332-1.564.73-2.086 1.21C.347 14.75 0 15.344 0 16s.347 1.25.87 1.73c.521.48 1.23.88 2.085 1.211C4.664 19.606 6.962 20 9.5 20c2.538 0 4.836-.394 6.545-1.059.854-.332 1.564-.73 2.086-1.21.522-.48.869-1.074.869-1.731s-.347-1.25-.87-1.73c-.521-.48-1.23-.88-2.085-1.211-1.363-.53-3.11-.877-5.045-1v1c1.827.123 3.462.456 4.684.931.774.301 1.382.659 1.771 1.016S18 15.69 18 16c0 .31-.156.637-.545.994s-.997.715-1.771 1.016c-1.549.602-3.751.99-6.184.99-2.433 0-4.635-.388-6.184-.99-.774-.301-1.382-.659-1.771-1.016S1 16.31 1 16c0-.31.156-.637.545-.994s.997-.715 1.771-1.016c1.222-.475 2.857-.808 4.684-.931v-1z" fill="#2f9bc9" fill-opacity="1" stroke="none" stroke-width="0" class="fill-222222"></path></svg>