<svg viewBox="0 0 100 100" xmlns="http://www.w3.org/2000/svg" width="32px" height="32px"><g display="inline" ><path d="M20 0C8.92 0 0 8.92 0 20v60c0 11.08 8.92 20 20 20h60c11.08 0 20-8.92 20-20V20c0-11.08-8.92-20-20-20H20zm3.184 17.135h45.754c3.851 0 7.052 3.785 7.052 8.344v6.205c.061 5.103-6.438 5.103-6.377 0v-6.205c0-.507-.247-.795-.675-.795H23.184c-.429 0-.672.288-.672.795v49.04c0 .507.243.797.672.797h45.754c.428 0 .675-.29.675-.796v-6.622c-.06-5.103 6.438-5.103 6.377 0v6.622c0 4.558-3.2 8.345-7.052 8.345H23.184c-3.852 0-7.051-3.787-7.051-8.345V25.479c0-4.559 3.199-8.344 7.05-8.344zm53.78 21.719a3.18 3.18 0 0 1 1.515.425l13.798 7.967c2.119 1.224 2.119 4.282 0 5.506L78.48 60.719c-2.12 1.222-2.768-.308-2.768-2.754V53.5H47.258c-3.987.067-3.987-7.067 0-7H75.71v-4.469c0-1.785-.53-3.22 1.254-3.177z" opacity="1" fill="#f00909" fill-opacity="1" fill-rule="nonzero" stroke="none" stroke-width="3.79999995" stroke-linecap="round" stroke-linejoin="round" stroke-miterlimit="4" stroke-dasharray="none" stroke-dashoffset="0" stroke-opacity="1" class="fill-000000"></path></g></svg>