<svg viewBox="0 0 32 32" xmlns="http://www.w3.org/2000/svg" width="32px" height="32px"><g data-name="Layer 4"><path d="m11.71 15.29-4-4a1 1 0 0 0-1.09-.21A1 1 0 0 0 6 12v1H3a1 1 0 0 0-1 1v4a1 1 0 0 0 1 1h3v1a1 1 0 0 0 .62.92A.84.84 0 0 0 7 21a1 1 0 0 0 .71-.29l4-4a1 1 0 0 0 0-1.42ZM20 29.52a2 2 0 0 1-1.12-.34 2 2 0 0 1-.88-1.66v-23a2 2 0 0 1 2.74-1.86l8 3.2A2 2 0 0 1 30 7.68v16.64a2 2 0 0 1-1.26 1.86l-8 3.2a1.91 1.91 0 0 1-.74.14Zm0-25v23.01l8-3.21V7.68Z" fill="#79d96f" class="fill-000000"></path><path d="M22 19a1 1 0 0 1-1-1v-4a1 1 0 0 1 2 0v4a1 1 0 0 1-1 1ZM19 5h-4a2 2 0 0 0-2 2v19a2 2 0 0 0 2 2h4a1 1 0 0 0 1-1V6a1 1 0 0 0-1-1Z" fill="#79d96f" class="fill-000000"></path><path d="M20 24c6.83-.25 8-5 8-6.67l1 7a1 1 0 0 1-.63.93l-8.53 3.47-.23-3.5Z" fill="#79d96f" class="fill-000000"></path></g></svg>