<svg id="svg" fill="#000000" stroke="#000000" width="37" height="37" version="1.1" viewBox="137 137 526 526" xmlns="http://www.w3.org/2000/svg">
    <g id="IconSvg_bgCarrier" stroke-width="0"></g>
    <g id="IconSvg_tracerCarrier" stroke-linecap="round" stroke-linejoin="round" stroke="#CCCCCC" stroke-width="0">
      <path xmlns="http://www.w3.org/2000/svg" d="m421.73 331.01 43.531 21.758-43.531 21.758zm198.69-88.449v220.42c0 8.6953-7.0508 15.742-15.742 15.742h-141.7v62.977h31.488c8.6953 0 15.742 7.0508 15.742 15.742 0 8.6953-7.0508 15.742-15.742 15.742h-94.465c-8.6953 0-15.742-7.0508-15.742-15.742 0-8.6953 7.0508-15.742 15.742-15.742h31.488v-62.977h-141.7c-8.6953 0-15.742-7.0508-15.742-15.742v-220.42c0-8.6953 7.0508-15.742 15.742-15.742h314.88c8.6953 0 15.742 7.0508 15.742 15.742zm-104.23 110.21c0.003906-5.9648-3.3594-11.418-8.6914-14.09l-94.465-47.23c-7.7734-3.8945-17.234-0.75-21.129 7.0234-1.0977 2.1953-1.6719 4.6133-1.668 7.0703v94.465c-0.007812 8.6953 7.0352 15.75 15.73 15.758 2.4531 0.003906 4.875-0.57031 7.0703-1.668l94.465-47.23c5.332-2.6719 8.6953-8.1289 8.6914-14.09zm56.992-62.977c0-8.6953-7.0508-15.742-15.742-15.742-8.6953 0-15.742 7.0508-15.742 15.742 0 8.6953 7.0508 15.742 15.742 15.742 8.6953 0 15.742-7.0508 15.742-15.742zm-330.62 62.977h-62.977v31.488h62.977zm0-31.488v-62.977h-47.23c-8.6953 0-15.742 7.0508-15.742 15.742v47.23zm125.95 188.93v47.23c0 8.6953-7.0508 15.742-15.742 15.742h-157.44c-8.6953 0-15.742-7.0508-15.742-15.742v-141.7h62.977v47.23c0 26.086 21.148 47.23 47.23 47.23zm-125.95 15.742c0-8.6953-7.0508-15.742-15.742-15.742-8.6953 0-15.742 7.0508-15.742 15.742 0 8.6953 7.0508 15.742 15.742 15.742 8.6953 0 15.742-7.0508 15.742-15.742z"></path>

      </g>
     <g id="IconSvg_iconCarrier">
      <path xmlns="http://www.w3.org/2000/svg" d="m421.73 331.01 43.531 21.758-43.531 21.758zm198.69-88.449v220.42c0 8.6953-7.0508 15.742-15.742 15.742h-141.7v62.977h31.488c8.6953 0 15.742 7.0508 15.742 15.742 0 8.6953-7.0508 15.742-15.742 15.742h-94.465c-8.6953 0-15.742-7.0508-15.742-15.742 0-8.6953 7.0508-15.742 15.742-15.742h31.488v-62.977h-141.7c-8.6953 0-15.742-7.0508-15.742-15.742v-220.42c0-8.6953 7.0508-15.742 15.742-15.742h314.88c8.6953 0 15.742 7.0508 15.742 15.742zm-104.23 110.21c0.003906-5.9648-3.3594-11.418-8.6914-14.09l-94.465-47.23c-7.7734-3.8945-17.234-0.75-21.129 7.0234-1.0977 2.1953-1.6719 4.6133-1.668 7.0703v94.465c-0.007812 8.6953 7.0352 15.75 15.73 15.758 2.4531 0.003906 4.875-0.57031 7.0703-1.668l94.465-47.23c5.332-2.6719 8.6953-8.1289 8.6914-14.09zm56.992-62.977c0-8.6953-7.0508-15.742-15.742-15.742-8.6953 0-15.742 7.0508-15.742 15.742 0 8.6953 7.0508 15.742 15.742 15.742 8.6953 0 15.742-7.0508 15.742-15.742zm-330.62 62.977h-62.977v31.488h62.977zm0-31.488v-62.977h-47.23c-8.6953 0-15.742 7.0508-15.742 15.742v47.23zm125.95 188.93v47.23c0 8.6953-7.0508 15.742-15.742 15.742h-157.44c-8.6953 0-15.742-7.0508-15.742-15.742v-141.7h62.977v47.23c0 26.086 21.148 47.23 47.23 47.23zm-125.95 15.742c0-8.6953-7.0508-15.742-15.742-15.742-8.6953 0-15.742 7.0508-15.742 15.742 0 8.6953 7.0508 15.742 15.742 15.742 8.6953 0 15.742-7.0508 15.742-15.742z"></path>

      </g>
      </svg>