<svg id="Layer_1" version="1.1" viewBox="0 0 512 512" xml:space="preserve" xmlns="http://www.w3.org/2000/svg" enable-background="new 0 0 512 512" width="32px" height="32px"><path d="M472.4 323.1c-5.8 15-13.1 29.3-21.7 42.7-.1.1-.2.3-.3.4-12.4 19.1-29.3 34.9-48.9 46.5-7.3 4.4-15.8 10.3-23.6 17.9h-84.5v-30.4c0-41 14.9-80.7 41.9-111.6l31.2-35.8c4-4.6 11.6-2.8 13 3.2 2 8.3 3 16.8 3 25.2 0 18.8-4.9 37.4-14.3 54 0 0 18-3.2 36.1-17.3 23.8-18.6 47.6-56.2 29.9-130.3 5.2-3.9 11-5.6 16.8-5.6 16.5 0 32.8 13.9 33.9 32.3 2.2 36.5.5 79.4-12.5 108.8z" fill="#3b4652" class="fill-3b4652"></path><path d="M388.2 456.1v23.6c0 5.2-4.2 9.4-9.4 9.4h-94.1c-5.2 0-9.4-4.2-9.4-9.4v-23.6c0-5.2 4.2-9.4 9.4-9.4h94.1c5.2-.1 9.4 4.2 9.4 9.4z" fill="#45b0d0" class="fill-2b79c2"></path><path d="M218.5 400.2v30.4H134c-7.8-7.6-16.2-13.5-23.6-17.9-19.6-11.7-36.5-27.4-48.9-46.5-.1-.1-.2-.3-.3-.4-8.7-13.4-15.9-27.7-21.7-42.7-13-29.4-14.7-72.3-12.5-108.9 1.1-18.3 17.5-32.2 34-32.2 5.8 0 11.6 1.7 16.8 5.6-17.6 74.1 6.1 111.7 29.9 130.3 18 14.1 36.1 17.3 36.1 17.3-9.5-16.6-14.3-35.2-14.3-54 0-8.4 1-16.9 3-25.2 1.4-6 9-7.8 13-3.2l31.2 35.8c26.9 30.9 41.8 70.6 41.8 111.6z" fill="#3b4652" class="fill-3b4652"></path><path d="M123.8 456.1v23.6c0 5.2 4.2 9.4 9.4 9.4h94.1c5.2 0 9.4-4.2 9.4-9.4v-23.6c0-5.2-4.2-9.4-9.4-9.4h-94.1c-5.2-.1-9.4 4.2-9.4 9.4z" fill="#45b0d0" class="fill-2b79c2"></path><path d="m286.6 126.5-40.2 40.2-21-21c-3.1-3.1-8.2-3.1-11.3 0-3.1 3.1-3.1 8.2 0 11.3l26.6 26.6c1.6 1.6 3.6 2.3 5.7 2.3s4.1-.8 5.7-2.3l45.9-45.9c3.1-3.1 3.1-8.2 0-11.3-3.2-3-8.3-3-11.4.1z" fill="#3b4652" class="fill-3b4652"></path><path d="M386.6 76.3c-2.1.3-4.2.4-6.3.4-20.3 0-37.7-12.3-45.1-29.8-2.5-5.9-3.9-12.4-3.9-19.2 0-1.6.1-3.2.2-4.8H180.6c.2 1.6.2 3.2.2 4.8 0 6.8-1.4 13.3-3.9 19.2-7.5 17.5-24.9 29.8-45.1 29.8-2.1 0-4.2-.1-6.3-.4.8 23.2-15.1 164.9 130.6 211.1C401.7 241.2 385.8 99.5 386.6 76.3zM256 231.4c-42.1 0-76.3-34.2-76.3-76.3s34.2-76.3 76.3-76.3 76.3 34.2 76.3 76.3-34.2 76.3-76.3 76.3z" fill="#45b0d0" class="fill-2b79c2"></path></svg>