<svg viewBox="0 0 64 64" width="30px" height="30px" xmlns="http://www.w3.org/2000/svg"><g data-name="15-Sale and Promotion"><rect height="38" rx="2" ry="2" width="62" x="1" y="23" fill="none" stroke="#45b0d0" stroke-linejoin="round" stroke-width="2px" class="stroke-000000"></rect><circle cx="32" cy="7" r="4" fill="none" stroke="#45b0d0" stroke-linejoin="round" stroke-width="2px" class="stroke-000000"></circle><path d="M29 9 19 19M35 10l9 9M4 23v-3a.979.979 0 0 1 1-1h54a.979.979 0 0 1 1 1v3M7 45v4.021A1.979 1.979 0 0 0 8.979 51h6.042A1.979 1.979 0 0 0 17 49.021v-4.042A1.979 1.979 0 0 0 15.021 43H8.979A1.979 1.979 0 0 1 7 41.021v-4.042A1.979 1.979 0 0 1 8.979 35h6.042A1.979 1.979 0 0 1 17 36.979V41M22 52V36.979A1.979 1.979 0 0 1 23.979 35h6.042A1.979 1.979 0 0 1 32 36.979V52M22 43h10M37 34v17h8M58 51h-9V35h9M58 43h-9" fill="none" stroke="#45b0d0" stroke-linejoin="round" stroke-width="2px" class="stroke-000000"></path><circle cx="7" cy="29" r="2" fill="none" stroke="#45b0d0" stroke-linejoin="round" stroke-width="2px" class="stroke-000000"></circle><circle cx="57" cy="29" r="2" fill="none" stroke="#45b0d0" stroke-linejoin="round" stroke-width="2px" class="stroke-000000"></circle><path d="M12 29h40M60 56h-2M6 56H4M8 56h48" fill="none" stroke="#45b0d0" stroke-linejoin="round" stroke-width="2px" class="stroke-000000"></path></g></svg>