<svg viewBox="0 0 512 512" xml:space="preserve" xmlns="http://www.w3.org/2000/svg" enable-background="new 0 0 512 512" width="32px" height="32px"><path d="m479.26 265.978-19.174 119.595H272.164l-5.383 19.526v29.13H479.26v-29.13l23.087-131.692c-.001 0-12.522-13.028-23.087-7.429z" fill="#defffe" class="fill-defffe"></path><path d="M300.238 207.823v10.969c0 4.066 2.262 7.717 5.903 9.526a10.643 10.643 0 0 0 4.749 1.123c2.267 0 4.515-.732 6.41-2.167l19.503-14.762h124.511c11.58 0 21-9.421 21-21V94.404c0-11.579-9.42-21-21-21H313.447c-11.58 0-21 9.421-21 21v97.108c0 6.439 2.866 12.349 7.791 16.311z" fill="#004358" class="fill-004358"></path><path d="M503.252 266.263a12.988 12.988 0 0 0-9.855-4.521H295.744c-6.481 0-11.887 4.651-12.854 11.06l-19.46 128.872h-20.042l-.844-4.436a78.089 78.089 0 0 0-9.873-25.56c35.204-29.379 28.252-53.719 20.906-79.441-2.892-10.126-5.838-20.479-6.801-31.984a54.698 54.698 0 0 0 3.55-19.42v-15.348c1.154-5.868 1.792-12.184 1.875-18.805a5 5 0 0 0-4.937-5.062h-.064c-1.351 0-2.577.54-3.479 1.415a38.935 38.935 0 0 0-2.084-2.86 5 5 0 0 0-7.801 6.258c4.245 5.292 6.489 11.683 6.489 18.48 0 15.677-12.269 28.537-27.708 29.497V207.12a5 5 0 1 0-10 0v57.006a69.303 69.303 0 0 1-3.424 21.53 45.384 45.384 0 0 1-3.868.177h-19.761a5 5 0 1 0 0 10h19.381c-11.555 22.483-34.976 37.91-61.946 37.91-38.387 0-69.618-31.23-69.618-69.617V199.2a5 5 0 1 0-10 0v55.207c-15.44-.96-27.709-13.819-27.709-29.497 0-7.471 2.811-14.607 7.916-20.098a5 5 0 1 0-7.323-6.808 39.853 39.853 0 0 0-3.944 5.002 4.985 4.985 0 0 0-3.523-1.455h-.061a5 5 0 0 0-4.939 5.061c.08 6.679.723 13.053 1.893 18.97a39.309 39.309 0 0 0 2.956 14.357c2.901 20.307-1.731 36.571-6.223 52.298-7.347 25.722-14.298 50.062 20.909 79.443a78.159 78.159 0 0 0-9.879 25.58l-6.83 35.884a5 5 0 0 0 4.912 5.934H64.14v-22.241a5 5 0 1 1 10 0v22.241h399.252c7.168 0 13-5.832 13-13a5 5 0 1 0-10 0c0 1.654-1.346 3-3 3H272.73v-8.703a5 5 0 1 0-10 0v8.703h-78.165c-1.654 0-3-1.346-3-3v-11.405c0-1.654 1.346-3 3-3h297a5 5 0 0 0 4.944-4.254l19.742-130.736a12.99 12.99 0 0 0-2.999-10.42zm-290.642-1.839c9.1-.42 17.395-3.941 23.879-9.514.03 1.242.08 2.471.153 3.685-4.95 11.471-14.524 20.493-26.378 24.678a79.427 79.427 0 0 0 2.346-18.849zm-6.113 30.265c13.026-2.698 24.372-10.023 32.259-20.165 1.446 7.256 3.37 14.033 5.205 20.459 7.181 25.142 12.444 43.594-17.031 68.459-13.402-16.821-33.474-27.856-55.768-29.476 15.791-8.668 28.345-22.528 35.335-39.277zM39.073 363.444c-29.478-24.866-24.215-43.319-17.033-68.462 3.391-11.874 7.104-24.922 7.471-40.054 6.486 5.566 14.784 9.076 23.88 9.496.111 29.949 16.845 56.047 41.433 69.543-22.287 1.624-42.352 12.657-55.751 29.477zm457.29-88.255-19.1 126.483H273.542l19.235-127.38a2.982 2.982 0 0 1 2.967-2.552h197.653c1.198 0 1.939.654 2.274 1.044.335.391.871 1.221.692 2.405z" fill="#004358" class="fill-004358"></path><path d="M442.573 129.1H332.188a5 5 0 1 1 0-10h110.384a5 5 0 0 1 .001 10zM392.58 166.817h-60.392a5 5 0 1 1 0-10h60.392a5 5 0 1 1 0 10zM442.573 166.817h-19.754a5 5 0 1 1 0-10h19.754a5 5 0 1 1 0 10z" fill="#2fccd4" class="fill-bedb39"></path><path d="M384.564 357.485c-5.673 0-10.679-2.246-14.093-6.324-3.419-4.084-4.802-9.673-3.792-15.333 1.992-11.158 12.322-19.899 23.517-19.899 5.674 0 10.679 2.246 14.093 6.323 3.419 4.084 4.802 9.673 3.792 15.333v.001c-1.991 11.158-12.321 19.899-23.517 19.899zm5.633-31.556c-6.283 0-12.544 5.338-13.672 11.657-.496 2.778.077 5.32 1.614 7.155 1.481 1.77 3.763 2.744 6.426 2.744 6.284 0 12.545-5.338 13.672-11.657.496-2.779-.077-5.32-1.614-7.156-1.481-1.769-3.764-2.743-6.426-2.743zm12.962 10.778h.01-.01zM163.304 308.093h-7.826c-9.518 0-17.261-7.743-17.261-17.261s7.743-17.261 17.261-17.261h7.826c9.518 0 17.261 7.743 17.261 17.261s-7.743 17.261-17.261 17.261zm-7.826-24.522c-4.003 0-7.261 3.257-7.261 7.261s3.257 7.261 7.261 7.261h7.826c4.004 0 7.261-3.257 7.261-7.261s-3.257-7.261-7.261-7.261h-7.826z" fill="#04bfbf" class="fill-04bfbf"></path><path d="M133 391.41c-24.645 0-46.288-16.617-52.633-40.41a5 5 0 0 1 9.662-2.576c5.18 19.422 22.85 32.986 42.971 32.986s37.792-13.564 42.971-32.986a4.998 4.998 0 0 1 6.12-3.543 4.999 4.999 0 0 1 3.542 6.119c-6.345 23.793-27.988 40.41-52.633 40.41zM222.678 119.911C207.384 100.81 179.411 78.039 133 78.039c-46.421 0-74.397 22.779-89.691 41.889-17.83 22.276-28.565 51.972-29.455 81.473a4.998 4.998 0 0 0 1.389 3.607 5.017 5.017 0 0 0 3.547 1.543c.806.012 19.971.245 39.921-2.35 22.531-2.93 37.173-8.141 44.369-15.838 18.411 19.598 51.151 24.851 80.997 24.85 30.726-.001 58.381-5.574 64.122-6.809a5 5 0 0 0 3.947-5.041c-.899-29.496-11.64-59.184-29.468-81.452z" fill="#2fccd4" class="fill-bedb39"></path></svg>