<svg viewBox="0 0 512 512" xml:space="preserve" xmlns="http://www.w3.org/2000/svg" width="64px" height="64px"><g fill="#d14745" fill-opacity="1" class="fill-282828"><path d="M866.206 605.46v512h512v-512h-512z" transform="translate(-866.206 -605.46)" fill="#d14745" fill-opacity="1" fill-rule="nonzero" stroke="none" class="fill-282828"></path><path d="M1207.161 730.421c17.678 10.209 40.277 4.154 50.48-13.52 10.207-17.68 4.156-40.277-13.523-50.484-17.677-10.204-40.274-4.15-50.481 13.53-10.204 17.673-4.15 40.27 13.524 50.474zm-75.649 239.013c-16.254 0-31.657-3.614-45.484-10.046l-25.684 46.026c21.454 10.623 45.606 16.625 71.168 16.625 14.865 0 29.239-2.06 42.898-5.843 2.417-14.845 11.232-28.528 25.285-36.643 14.03-8.1 30.266-8.903 44.32-3.591 27.331-26.875 45.116-63.44 47.705-104.159l-52.68-.763c-4.847 55.156-51.12 98.397-107.528 98.397zm0-215.949c56.409 0 102.68 43.25 107.528 98.4l52.68-.772c-2.593-40.716-20.378-77.28-47.713-104.153-14.052 5.308-30.286 4.503-44.317-3.598-14.051-8.112-22.865-21.793-25.282-36.64a160.61 160.61 0 0 0-42.896-5.84c-25.562 0-49.712 6-71.164 16.627l25.682 46.02c13.824-6.433 29.228-10.046 45.482-10.046zM1023.539 861.46c0-36.53 18.154-68.795 45.911-88.333l-27.022-45.269c-32.346 21.614-56.41 54.651-66.405 93.35 11.677 9.516 19.137 24.008 19.137 40.255 0 16.245-7.462 30.737-19.138 40.252 9.993 38.7 34.057 71.737 66.404 93.35l27.024-45.27c-27.757-19.535-45.911-51.8-45.911-88.335zm183.627 131.036c-17.68 10.208-23.733 32.804-13.528 50.476 10.208 17.68 32.803 23.737 50.483 13.53 17.675-10.206 23.73-32.803 13.523-50.481-10.204-17.671-32.803-23.728-50.478-13.525zM943.251 824.502c-20.418 0-36.963 16.542-36.963 36.961 0 20.413 16.545 36.958 36.963 36.958 20.411 0 36.958-16.545 36.958-36.958 0-20.419-16.547-36.961-36.958-36.961" transform="translate(-866.206 -605.46)" fill="#d14745" fill-opacity="1" fill-rule="nonzero" stroke="none" class="fill-282828"></path></g><path d="M1139.057 1059.991c5.83-1.82 10.552-4.399 15.898-8.681 11.982-9.601 20.284-20.81 51.278-69.229 23.302-36.402 32.046-52.672 38.548-71.724 2.994-8.773 6.428-23.863 6.428-28.25 0-1.759-.187-2.132-.992-1.979-1.438.274-4.451 5.061-5.538 8.802-1.166 4.008-5.48 14.862-9.696 24.387-5.421 12.251-14.903 28.304-29.399 49.77-27.64 40.932-26.82 39.795-28.304 39.226-.784-.301-.791-.593-.06-2.664 1.012-2.867 5.512-10.556 11.444-19.552 2.467-3.742 6.101-9.846 8.076-13.562 1.974-3.717 4.831-8.662 6.35-10.988 1.92-2.943 2.76-4.81 2.76-6.14 0-1.052-.277-1.912-.617-1.912-.34 0-1.93 1.148-3.534 2.551-2.643 2.312-4.968 3.438-4.057 1.964.2-.323 4.46-5.234 9.469-10.915 14.308-16.226 18.944-23.018 21.754-31.872 1.6-5.044 2.53-13.892 1.459-13.892-1.318 0-5.698 6.557-13.128 19.65-4.207 7.413-8.566 14.636-9.687 16.05-11.432 14.425-32.767 24.456-56.09 26.372-2.339.193-7.678 1.002-11.864 1.799-7.47 1.422-7.807 1.437-18.144.784-12.097-.764-17.841-1.763-19.592-3.408-1.038-.975-1.983-1.146-6.365-1.146-6.273 0-12.17-1.072-20.66-3.758-14.729-4.66-26.799-10.836-35.87-18.353-6.965-5.773-9.464-9.356-17.579-25.206-5.467-10.679-8.453-15.619-9.44-15.619-1.603 0 2.245 12.658 5.993 19.717 5.878 11.066 11.7 18.294 26.495 32.896 21.116 20.838 25.445 23.932 40.53 28.96 12.722 4.24 19.652 5.176 38.348 5.177 11.817 0 11.826 0 13.527 1.432 1.372 1.155 2.074 1.362 3.625 1.07 1.245-.233 1.924-.139 1.924.267 0 .345-1.568 2.733-3.485 5.308-4.828 6.484-5.844 8.885-5.82 13.753.016 3.252.423 4.992 2.253 9.638 2.226 5.654 2.232 5.692 2.174 13.325-.055 7.168-.224 8.284-2.653 17.577-3.701 14.157-4.148 19.844-1.56 19.844.602 0 3.213-.66 5.802-1.469zm-31.136-3.634c-.067-2.027-1.17-7.895-2.449-13.04-3.798-15.273-4.594-21.744-3.345-27.166.317-1.375 1.842-5.224 3.388-8.551 2.535-5.455 2.81-6.437 2.788-9.973-.027-4.51-1.185-8.163-3.717-11.728-2.093-2.945-3.99-3.922-11.34-5.83-3.046-.792-8.49-2.687-12.097-4.212-3.607-1.524-8.42-3.353-10.697-4.065-4.98-1.555-6.221-1.156-5.803 1.864.28 2.029.268 6.992-.036 14.379-.16 3.873.079 5.36 1.635 10.183 1.837 5.695 2.208 8.458 1.322 9.855-1.314 2.075-4.573-2.468-8.273-11.534-2.8-6.861-11.398-23.487-17.891-34.596-5.132-8.78-14.363-23.49-26.857-42.798-7.038-10.875-11.221-18.803-14.865-28.171-4.457-11.459-9.017-18.89-11.593-18.89-2.043 0-1.842 2.371.917 10.829 9.232 28.296 23.042 55.633 51.246 101.436 11.171 18.143 14.87 23.614 19.414 28.713 1.906 2.139 7.433 9.885 12.283 17.214 7.2 10.88 9.81 14.323 14.233 18.77 2.98 2.996 6.63 6.147 8.113 7.002 3.74 2.157 10.006 4.31 12.045 4.138l1.701-.143-.122-3.686zm15.385-33.297c-.05-2.553-1.188-4.534-2.088-3.634-.308.308-.367 1.784-.137 3.457.315 2.292.602 2.877 1.336 2.728.698-.142.923-.788.889-2.55zm13.367-68.336c0-.39-.507-1.474-1.122-2.41-1.522-2.314-11.738-13.298-14.136-15.197-1.856-1.47-2-1.496-3.403-.61-1.695 1.07-1.455.802-8.775 9.813-3.834 4.722-5.425 7.092-5.028 7.49.58.58 14.007 1.37 26.089 1.536 4.773.065 6.378-.091 6.375-.622zm32.628-21.65c16.208-3.927 24.838-9.266 34.052-21.066 4.315-5.526 8.734-12.567 8.734-13.917 0-1.066-.574-1.17-12.188-2.202-11.693-1.04-17.012-2.816-17.012-5.679 0-1.37.079-1.396 3.969-1.223 2.182.097 7.072.544 10.865.992 9.143 1.082 12.616 1.032 22.81-.328 9.188-1.226 12.719-2.321 17.294-5.366 4.329-2.88 13.951-11.64 16.596-15.106 2.942-3.857 3.725-5.44 5.294-10.702 1.137-3.812 1.298-5.849 1.549-19.655l.28-15.401-3.325-.37c-1.828-.202-6.354-.862-10.058-1.466-8.183-1.333-10.03-1.353-13.678-.148-2.392.79-7.087 1.004-30.05 1.368-14.97.238-29.385.609-32.036.825-6.687.544-8.998-.182-13.131-4.125-1.822-1.737-3.312-3.459-3.312-3.826 0-1.481 3.515-5.787 6.07-7.434 6.811-4.394 16.678-10.005 19.483-11.08 7.614-2.92 20.982-3.624 30.58-1.61 9.663 2.027 18.639 7.18 22.963 13.184 2.786 3.868 3.293 4.192 8.158 5.216 2.14.45 4.752 1.316 5.804 1.926 2.28 1.32 9.13 3.473 11.045 3.473 1.347 0 1.358-.05 1.358-5.975 0-6.796-.858-28.927-1.724-44.487-1.762-31.648-6.558-55.882-13.945-70.46-7.684-15.162-24.566-24.144-57.757-30.725-24.914-4.94-49.667-6.996-72.291-6.004-54.189 2.377-89.313 10.553-105.946 24.659-8.856 7.511-14.122 18.692-18.443 39.155-5.641 26.719-7.635 48.116-8.112 87.033l-.329 26.932 1.835 5.387c4.509 13.234 12.503 26.848 19.65 33.461 3.936 3.642 10.197 7.242 13.778 7.92 4.405.837 17.81.685 26.976-.303 4.366-.471 10.553-1.013 13.75-1.204 5.653-.338 5.811-.315 5.811.855 0 1.736-1.848 2.663-7.937 3.98-12.363 2.674-15.023 3.034-21.95 2.977-8.312-.07-8.511.099-5.812 4.896 4.65 8.264 10.65 15.121 17.011 19.442 7.282 4.944 24.599 12.342 31.845 13.604 4.785.834 8.614-.17 12.461-3.263 3.875-3.117 5.23-5.077 5.163-7.468-.047-1.689-.548-2.49-2.92-4.672-1.573-1.448-3.012-3.234-3.196-3.969-.184-.734.058-3.76.539-6.722 1.49-9.189.832-15.555-1.571-15.194-.616.093-1.402.68-1.745 1.303-.344.623-1.446 2.305-2.449 3.735-2.854 4.072-4.13 7.57-4.13 11.326 0 3.105-.103 3.37-1.434 3.705-1.044.261-2.05-.067-3.7-1.212-4.562-3.16-7.343-8.726-7.336-14.68.01-6.356 2.435-10.01 9.067-13.646 4.764-2.612 8.03-6.038 9.355-9.813 1.146-3.268 4.023-19.434 5.165-29.027.523-4.397.874-12.907.923-22.416l.079-15.328-4.5-8.704c-4.03-7.794-4.88-9.038-8.13-11.888-1.997-1.75-6.59-5.82-10.206-9.042-11.266-10.038-16.36-13.116-24.632-14.887-8.007-1.714-11.711-3.513-11.711-5.687 0-2.09 3.445-2.958 10.205-2.572 13.476.77 21.526 5.06 40.397 21.532 13.58 11.852 16.7 15.676 20.674 25.333.962 2.34 2.273 6.422 2.914 9.072 2.277 9.425 2.457 13.938 1.815 45.566-.332 16.377-.72 30.11-.86 30.519-1.031 2.99-4.291 27.292-4.32 32.2-.032 5.553.035 5.888 1.481 7.397 3.73 3.895 12.982 6.233 20.216 5.11 4.471-.693 6.503-1.581 9.89-4.325 1.287-1.042 3.038-2.212 3.891-2.6 1.734-.79.775-1.604 8.895 7.553 6.056 6.83 10.457 7.94 21.186 5.34zm-6.488-33.632c-.852-4.009-3.505-9.663-5.346-11.393-.755-.708-2.694-1.637-4.31-2.063-1.615-.426-3.305-1.08-3.755-1.454-2.044-1.696.099-6.105 2.655-5.464 2.336.586 8.092 4.612 9.952 6.961 4.467 5.64 5.998 12.073 3.599 15.114-.677.858-1.427 1.56-1.667 1.56s-.747-1.468-1.128-3.261zm-165.617-67.375c0-.805.675-3.15 1.5-5.212 1.494-3.734 1.496-3.758.492-6.333-.554-1.422-1.128-3.27-1.275-4.107-.288-1.642-.791-1.393 6.787-3.356 1.414-.365 2.64-1.248 3.686-2.654 2.74-3.68 7.15-7.765 10.375-9.61 8.053-4.608 19.568-6.707 31.733-5.787 7.186.543 11.505 1.833 18.994 5.669 12.743 6.528 18 10.299 18.809 13.493.784 3.096-3.082 7.407-7.959 8.875-3.795 1.142-13.147 1.874-36.54 2.861-11.634.491-23.115 1.228-25.514 1.638-8.624 1.475-17.392 3.783-18.573 4.889-1.607 1.505-2.515 1.373-2.515-.366zm146.095-31.234c-.75-.75-.363-6.51.556-8.297 3.937-7.65 11.444-15.89 23.73-26.05 14.204-11.745 24.421-16.305 36.537-16.305 5.038 0 7.406.821 7.406 2.568 0 2.335-3.547 4.142-13.363 6.808-6.978 1.895-8.621 2.722-14.215 7.158-12.025 9.535-30.972 27.016-36.067 33.276-.953 1.17-3.742 1.683-4.584.842zm-50.766-24.72c-1.362-.697-5.568-4.17-9.346-7.715-8.18-7.68-11.53-10.036-19.876-13.988-11.918-5.642-19.43-7.358-30.326-6.925-11.339.452-16.743 2.9-25.564 11.58-2.956 2.91-5.571 5.29-5.811 5.29-1.578 0 1.585-6.252 5.886-11.634 5.832-7.3 15.41-13.63 24.011-15.87 6.368-1.659 14.963-2.253 21.984-1.521 16.607 1.73 30.514 7.963 41.972 18.81 7.019 6.643 9.32 11.829 7.782 17.54-1.448 5.376-5.552 7.074-10.712 4.433zm52.154.358c-3.308-2.317-4.467-9.433-2.29-14.064 1.477-3.142 10.158-11.597 15.62-15.214 18.25-12.083 37.404-16.036 54.298-11.205 9.566 2.736 19.9 9.975 26.196 18.35 2.856 3.8 5.508 8.649 5.214 9.532-.103.307-2.842-1.875-6.087-4.847-10.2-9.344-17.3-12.01-30.646-11.506-15.89.598-26.877 5.712-46.494 21.638-10.525 8.546-12.65 9.53-15.81 7.316z" transform="translate(-866.206 -605.46)" fill="#ffffff" class="fill-ffffff"></path></svg>