<svg viewBox="0 0 512 512" xml:space="preserve" xmlns="http://www.w3.org/2000/svg" enable-background="new 0 0 512 512" width="32px" height="30px"><path d="M280.219 139.664a59.989 59.989 0 0 1 17.766 12.226c6.054 6.052 10.809 13.399 13.792 21.62l2.468.361c1.477.18 3.011.271 4.607.271 10.719 0 20.446-4.366 27.462-11.382 7.047-7.045 11.413-16.771 11.413-27.492 0-10.75-4.366-20.475-11.381-27.521-7.048-7.016-16.775-11.352-27.494-11.352a38.872 38.872 0 0 0-27.521 11.352c-7.016 7.047-11.382 16.771-11.382 27.521 0 1.085.06 2.139.151 3.223l.119 1.173zm1.295 9.305-.031.091-.028.091-.031.029-.06.12-.032.091-.06.121-.06.119v.03l-.031.061a63.426 63.426 0 0 1-3.159 6.052 68.842 68.842 0 0 1-4.818 6.836c4.247 3.854 9.153 6.986 14.512 9.273a51.306 51.306 0 0 0 16.713 3.977 51.814 51.814 0 0 0-22.915-26.891zm-72.931 24.42a46.657 46.657 0 0 0 7.317 2.229 52.616 52.616 0 0 0 11.23 1.205c11.143 0 21.439-3.493 29.841-9.455a52.377 52.377 0 0 0 7.92-6.896l.211-.24c2.379-2.59 4.517-5.42 6.292-8.432a49.523 49.523 0 0 0 3.162-6.143c-18.849-7.256-40.499-2.891-55.074 11.684a51.555 51.555 0 0 0-10.899 16.048zm59.381-5.149a56.589 56.589 0 0 1-6.566 5.391 59.117 59.117 0 0 1-34.267 10.9c-4.366 0-8.7-.482-12.887-1.416a62.602 62.602 0 0 1-8.191-2.439c-1.112 4.186-1.685 8.612-1.685 13.189 0 14.242 5.78 27.16 15.116 36.495 9.363 9.364 22.253 15.146 36.527 15.146 14.241 0 27.159-5.781 36.495-15.146 9.363-9.335 15.144-22.253 15.144-36.495 0-3.492-.361-6.926-1.021-10.209a58.815 58.815 0 0 1-21.952-4.695 59.35 59.35 0 0 1-16.713-10.721zm-53.601 106.384-67.358 26.438v75.91h30.112v-47.967a3.841 3.841 0 0 1 3.853-3.854 3.844 3.844 0 0 1 3.857 3.854v47.666h140.349v-47.666a3.842 3.842 0 0 1 3.854-3.854 3.86 3.86 0 0 1 3.854 3.854v47.967h30.111v-75.91l-46.463-18.248a3.732 3.732 0 0 1-2.018-.783l-18.878-7.407v33.183c0 2.018-1.656 3.674-3.706 3.674h-73.86c-2.049 0-3.706-1.656-3.706-3.674v-33.183zm37.85 29.48a3.687 3.687 0 0 1-1.053-.724l-29.389-28.274v28.998h30.442zm36.015-29.299-4.576 4.095c-.361.633-.965 1.144-1.625 1.476l-25.746 23.005a3.982 3.982 0 0 1-1.025.724h32.972v-29.3zm54.593-75.309-22.134 19.783h22.134v-19.783zm-58.63 69.045 3.254-2.89c.965-.874 2.26-1.114 3.432-.813.334-.09.695-.15 1.053-.15 1.358 0 2.53.723 3.162 1.806l22.044 8.643h54.081v-35.802c0-2.139 1.717-3.855 3.854-3.855s3.854 1.717 3.854 3.855v36.072h21.439v-57L350.2 198.683v24.3a3.703 3.703 0 0 1-3.707 3.705h-41.04a60.607 60.607 0 0 1-7.468 9.123 59.133 59.133 0 0 1-13.881 10.328l.087 22.402zm-50.764 7.559 20.383 19.603 22.734-20.325-.119-25.775a59.547 59.547 0 0 1-20.414 3.613 59.155 59.155 0 0 1-22.675-4.486l.091 27.37zm-72.268-78.289-50.137 19.691v57.031h21.439V238.43a3.862 3.862 0 0 1 3.854-3.854c2.109 0 3.854 1.747 3.854 3.854v35.833h54.324l.512.03 19.902-7.83a3.683 3.683 0 0 1 3.162-1.775c.33 0 .691.061 1.025.15a3.67 3.67 0 0 1 3.703 1.023l2.919 2.83-.091-23.848a59.452 59.452 0 0 1-11.592-9.033c-3.039-3.012-5.72-6.384-8.068-9.998h-41.103a3.7 3.7 0 0 1-3.703-3.703v-24.298zm29.54 20.595-22.134-19.784v19.784h22.134zm232.49 105.209c2.947.693 5.598 2.229 7.675 4.306a16.066 16.066 0 0 1 4.699 11.382c0 4.427-1.808 8.462-4.699 11.354a16.066 16.066 0 0 1-11.381 4.727c-4.457 0-8.462-1.807-11.382-4.727a15.957 15.957 0 0 1-4.728-11.354c0-4.455 1.808-8.49 4.728-11.382 2.078-2.077 4.728-3.612 7.679-4.306V184.019a16.056 16.056 0 0 1-7.679-4.275c-2.92-2.921-4.728-6.927-4.728-11.382 0-4.427 1.808-8.462 4.728-11.383 2.92-2.891 6.925-4.697 11.382-4.697 4.429 0 8.461 1.807 11.381 4.697 2.892 2.921 4.699 6.956 4.699 11.383 0 4.426-1.808 8.461-4.699 11.382a16.057 16.057 0 0 1-7.675 4.275v139.596zm46.733 22.012c4.425 0 8.461 1.807 11.381 4.727a16.06 16.06 0 0 1 4.696 11.383 16.17 16.17 0 0 1-4.696 11.382 16.164 16.164 0 0 1-11.381 4.697c-4.457 0-8.462-1.806-11.385-4.697a16.076 16.076 0 0 1-4.728-11.382c0-2.77.723-5.391 1.931-7.648l-13.34-11.894-.063-.061-.088-.061-.031-.03-.211-.181v-.03l-.06-.061-.06-.059-.06-.061-.063-.091-.06-.061-.088-.149-.063-.061v-.03l-.028-.061-.06-.06v-.031l-.032-.059-.06-.091-.031-.061v-.03l-.179-.393c-.06-.21-.119-.42-.151-.631-.031-.182-.031-.361-.031-.543V168.361c0-.182 0-.362.031-.572.032-.211.092-.392.151-.604l.179-.421.031-.061v-.03l.06-.061.032-.09.06-.06v-.03l.028-.061.063-.061.088-.149.06-.091.063-.061.06-.061.06-.06v-.03l.06-.061.211-.211.031-.029.088-.061.063-.03 13.367-11.894c-1.235-2.288-1.958-4.879-1.958-7.648 0-4.426 1.808-8.461 4.728-11.382a16.002 16.002 0 0 1 11.385-4.698c4.425 0 8.461 1.777 11.381 4.698a16.166 16.166 0 0 1 4.696 11.382c0 4.457-1.805 8.461-4.696 11.382a16.169 16.169 0 0 1-11.381 4.697c-3.464 0-6.654-1.083-9.244-2.921l-12.287 10.93v167.631l12.287 10.9a15.95 15.95 0 0 1 9.244-2.916zM81.153 327.921c2.078-2.077 4.696-3.612 7.679-4.306V184.019a15.91 15.91 0 0 1-7.679-4.275 16.063 16.063 0 0 1 0-22.765 16.055 16.055 0 0 1 11.381-4.697c4.425 0 8.461 1.807 11.353 4.697a16.077 16.077 0 0 1 4.728 11.383c0 4.455-1.808 8.461-4.728 11.382a15.923 15.923 0 0 1-7.679 4.275v139.597c2.979.693 5.601 2.229 7.679 4.306a15.974 15.974 0 0 1 4.728 11.382c0 4.427-1.808 8.462-4.728 11.354a15.958 15.958 0 0 1-11.353 4.727 15.96 15.96 0 0 1-11.381-4.727 15.945 15.945 0 0 1-4.728-11.354 15.966 15.966 0 0 1 4.728-11.383zm-50.438 22.433a15.974 15.974 0 0 1 11.381-4.727c3.436 0 6.625 1.084 9.244 2.92l12.287-10.9V170.016l-12.287-10.93a16.042 16.042 0 0 1-9.244 2.921 16.07 16.07 0 0 1-11.381-4.697 16.008 16.008 0 0 1-4.713-11.382c0-4.426 1.793-8.461 4.713-11.382 2.892-2.921 6.928-4.698 11.381-4.698 4.429 0 8.461 1.777 11.353 4.698a16.075 16.075 0 0 1 4.727 11.382c0 2.77-.691 5.36-1.926 7.648l13.339 11.894.091.03.06.061.028.029.21.211.063.061.028.03.031.06.06.061.06.061.06.091.091.149.06.061.06.061v.03l.032.06.06.09.032.061v.03l.028.061.183.421c.06.212.119.393.151.604.028.21.028.391.028.572v170.941c0 .182 0 .361-.028.543a5.114 5.114 0 0 1-.151.631l-.183.393v.03l-.028.061-.032.091-.06.059v.031l-.032.06-.06.061v.03l-.06.061-.091.149-.06.061-.06.091-.06.061-.031.059h-.028l-.063.061v.03l-.21.181-.028.03-.06.061-.091.061-13.339 11.886c1.235 2.258 1.926 4.879 1.926 7.648 0 4.426-1.807 8.461-4.727 11.382a16.041 16.041 0 0 1-11.353 4.697 16.066 16.066 0 0 1-16.094-16.079c-.001-4.457 1.793-8.492 4.713-11.382zm133.003 50.407c-2.018 0-3.703-1.656-3.703-3.704 0-2.047 1.685-3.703 3.703-3.703h184.614a3.701 3.701 0 0 1 3.702 3.703 3.701 3.701 0 0 1-3.702 3.704H163.718zm280.728-7.407a3.7 3.7 0 0 1 3.702 3.703 3.7 3.7 0 0 1-3.702 3.704h-42.275a3.701 3.701 0 0 1-3.706-3.704 3.701 3.701 0 0 1 3.706-3.703h42.275zm-72.208 15.778a3.701 3.701 0 0 1 3.706 3.703c0 2.019-1.657 3.674-3.706 3.674H151.192c-2.018 0-3.706-1.655-3.706-3.674 0-2.048 1.688-3.703 3.706-3.703h221.046zM91.51 416.509c-2.046 0-3.703-1.655-3.703-3.674a3.7 3.7 0 0 1 3.703-3.703h42.307a3.7 3.7 0 0 1 3.703 3.703c0 2.019-1.657 3.674-3.703 3.674H91.51zM192.534 95.491c-10.75 0-20.475 4.366-27.493 11.382-7.044 7.047-11.381 16.772-11.381 27.492a38.78 38.78 0 0 0 11.381 27.521c7.047 7.016 16.744 11.382 27.493 11.382 1.565 0 3.103-.091 4.576-.271l2.499-.392a59.691 59.691 0 0 1 12.346-20.084c5.391-5.782 11.894-10.479 19.211-13.731l.119-1.204c.091-1.054.123-2.138.123-3.222.001-21.468-17.403-38.873-38.874-38.873z" fill-rule="evenodd" clip-rule="evenodd" fill="#45b0d0" class="fill-000000"></path></svg>