<?xml version="1.0" standalone="no"?>
<!DOCTYPE svg PUBLIC "-//W3C//DTD SVG 20010904//EN"
 "http://www.w3.org/TR/2001/REC-SVG-20010904/DTD/svg10.dtd">
<svg version="1.0" xmlns="http://www.w3.org/2000/svg"
 width="847.000000pt" height="190.000000pt" viewBox="0 0 847.000000 190.000000"
 preserveAspectRatio="xMidYMid meet">

<g transform="translate(0.000000,190.000000) scale(0.100000,-0.100000)"
fill="#000000" stroke="none">
<path d="M1990 1720 c-8 -15 -8 -20 3 -20 14 0 37 19 37 32 0 16 -30 7 -40
-12z"/>
<path d="M2970 1711 c0 -6 4 -11 10 -11 5 0 7 -7 4 -15 -5 -11 -2 -13 10 -9
10 4 16 14 14 23 -4 18 -38 29 -38 12z"/>
<path d="M1340 1690 c-11 -21 3 -29 15 -10 5 8 11 7 21 -1 19 -16 30 -4 14 16
-17 21 -37 19 -50 -5z"/>
<path d="M1937 1703 c-4 -3 -7 -13 -7 -21 0 -11 3 -12 13 -3 10 8 17 7 25 -1
17 -17 27 -2 12 17 -13 16 -32 20 -43 8z"/>
<path d="M3547 1703 c-13 -12 -7 -32 7 -27 19 7 29 34 12 34 -7 0 -16 -3 -19
-7z"/>
<path d="M1110 1570 c0 -83 1 -90 20 -90 17 0 20 7 20 41 0 39 1 40 33 37 29
-3 32 -6 35 -40 3 -30 7 -38 23 -38 17 0 19 8 19 90 0 83 -1 90 -20 90 -16 0
-20 -7 -20 -35 0 -33 -2 -35 -35 -35 -33 0 -35 2 -35 35 0 28 -4 35 -20 35
-19 0 -20 -7 -20 -90z"/>
<path d="M1310 1570 l0 -91 53 3 c57 3 71 21 20 26 -27 3 -33 7 -33 28 0 20 5
24 30 24 20 0 30 5 30 15 0 10 -10 15 -30 15 -23 0 -30 5 -30 19 0 15 8 21 33
23 51 5 37 23 -20 26 l-53 3 0 -91z"/>
<path d="M1517 1653 c-14 -13 -6 -23 18 -23 24 0 25 -2 25 -75 0 -68 2 -75 20
-75 18 0 20 7 20 75 0 73 1 75 25 75 16 0 25 6 25 15 0 12 -14 15 -63 15 -35
0 -67 -3 -70 -7z"/>
<path d="M1680 1570 c0 -82 2 -90 19 -90 16 0 20 8 23 38 3 34 6 37 36 40 31
3 32 2 32 -37 0 -34 3 -41 20 -41 19 0 20 7 20 90 0 83 -1 90 -20 90 -16 0
-20 -7 -20 -35 0 -33 -2 -35 -35 -35 -33 0 -35 2 -35 35 0 28 -4 35 -20 35
-19 0 -20 -7 -20 -90z"/>
<path d="M1908 1649 c-41 -24 -40 -137 2 -159 30 -16 76 -12 101 9 20 16 24
29 24 71 0 42 -4 55 -24 71 -25 20 -75 25 -103 8z m76 -35 c31 -31 11 -104
-28 -104 -21 0 -39 28 -39 60 0 52 36 76 67 44z"/>
<path d="M2080 1570 c0 -83 2 -90 19 -90 17 0 20 8 23 53 l3 52 32 -52 c22
-36 39 -53 53 -53 19 0 20 7 20 90 0 83 -2 90 -19 90 -17 0 -20 -8 -23 -52
l-3 -53 -34 53 c-21 33 -40 52 -52 52 -17 0 -19 -8 -19 -90z"/>
<path d="M2291 1634 c-30 -38 -29 -103 3 -133 18 -17 33 -22 67 -19 l44 3 3
48 3 47 -35 0 c-25 0 -36 -4 -36 -15 0 -8 7 -15 15 -15 8 0 15 -9 15 -20 0
-23 -29 -27 -48 -8 -17 17 -15 83 2 97 8 7 30 11 48 9 24 -2 33 1 33 12 0 11
-13 16 -46 18 -41 3 -50 -1 -68 -24z"/>
<path d="M2558 1649 c-27 -15 -39 -74 -25 -117 11 -31 20 -39 79 -63 38 -15
70 -24 73 -18 9 13 -4 29 -22 29 -14 0 -13 3 3 21 29 32 26 115 -5 140 -25 20
-75 25 -103 8z m76 -35 c30 -29 13 -104 -23 -104 -26 0 -44 25 -44 60 0 52 36
76 67 44z"/>
<path d="M2730 1587 c0 -86 14 -107 71 -107 61 0 74 18 74 101 0 62 -3 74 -17
77 -16 3 -18 -5 -18 -61 0 -68 -13 -92 -47 -85 -15 3 -19 16 -23 73 -4 56 -8
70 -22 73 -16 3 -18 -5 -18 -71z"/>
<path d="M2936 1583 c-14 -43 -26 -84 -26 -91 0 -20 28 -14 35 8 5 14 15 20
37 20 21 0 31 -6 35 -20 5 -19 43 -29 43 -12 0 4 -13 44 -29 88 -22 59 -34 80
-49 82 -17 3 -24 -9 -46 -75z m60 -30 c-2 -3 -11 -3 -19 -1 -11 2 -12 9 -5 28
l10 25 9 -24 c5 -13 7 -26 5 -28z"/>
<path d="M3090 1570 c0 -83 2 -90 19 -90 17 0 20 8 23 52 l3 53 34 -53 c21
-33 40 -52 52 -52 17 0 19 8 19 90 0 83 -2 90 -19 90 -17 0 -20 -8 -23 -52
l-3 -52 -32 52 c-22 35 -39 52 -53 52 -19 0 -20 -6 -20 -90z"/>
<path d="M3360 1570 l0 -90 50 0 c38 0 50 4 50 15 0 10 -10 15 -30 15 l-30 0
0 75 c0 68 -2 75 -20 75 -19 0 -20 -7 -20 -90z"/>
<path d="M3480 1653 c0 -5 11 -26 25 -48 16 -26 24 -55 25 -83 0 -36 3 -43 18
-40 13 2 18 16 22 53 3 29 15 63 28 82 27 38 27 43 2 43 -12 0 -25 -10 -32
-25 -6 -14 -15 -25 -20 -25 -5 0 -14 11 -20 25 -10 22 -48 36 -48 18z"/>
<path d="M3720 1570 c0 -83 1 -90 20 -90 16 0 20 7 20 35 0 32 3 35 28 35 37
0 52 17 52 57 0 39 -21 53 -79 53 l-41 0 0 -90z m78 32 c3 -17 -2 -22 -17 -22
-16 0 -21 6 -21 26 0 33 33 30 38 -4z"/>
<path d="M3895 1636 c-35 -35 -35 -97 0 -132 20 -20 33 -25 68 -22 31 2 43 8
45 21 3 16 -1 17 -31 12 -41 -8 -67 13 -67 55 0 39 25 62 64 58 22 -2 31 1 31
12 0 10 -13 16 -42 18 -35 3 -48 -2 -68 -22z"/>
<path d="M4058 1649 c-11 -6 -18 -22 -18 -40 0 -23 7 -34 35 -51 43 -24 40
-44 -4 -40 -26 2 -32 -1 -29 -15 2 -13 14 -19 41 -21 47 -4 67 11 67 50 0 22
-8 33 -35 50 -41 23 -41 44 -1 41 21 -1 26 2 24 15 -4 20 -54 27 -80 11z"/>
<path d="M4170 1645 c0 -9 9 -15 25 -15 24 0 25 -2 25 -75 0 -68 2 -75 20 -75
18 0 20 7 20 75 0 73 1 75 25 75 16 0 25 6 25 15 0 12 -14 15 -70 15 -56 0
-70 -3 -70 -15z"/>
<path d="M4359 1641 c-20 -16 -24 -29 -24 -71 0 -42 4 -55 24 -71 25 -21 71
-25 101 -9 29 15 44 73 30 115 -6 19 -20 40 -30 45 -30 16 -76 12 -101 -9z
m91 -44 c13 -24 13 -30 0 -54 -19 -33 -42 -40 -64 -18 -33 33 -9 111 32 103 9
-2 23 -15 32 -31z"/>
<path d="M4540 1569 c0 -81 2 -90 18 -87 11 2 18 14 20 36 4 43 27 41 42 -3 8
-24 18 -35 31 -35 23 0 24 12 3 52 -13 25 -14 36 -5 50 29 47 2 78 -68 78
l-41 0 0 -91z m77 45 c3 -9 0 -20 -8 -25 -23 -14 -29 -11 -29 16 0 28 27 35
37 9z"/>
<path d="M4710 1570 l0 -90 50 0 c38 0 50 4 50 15 0 10 -10 15 -30 15 -25 0
-30 4 -30 25 0 21 5 25 31 25 38 0 35 24 -4 28 -41 5 -38 42 3 42 20 0 30 5
30 15 0 11 -12 15 -50 15 l-50 0 0 -90z"/>
<path d="M6160 1513 c-85 -30 -157 -57 -159 -59 -2 -2 -3 -191 -2 -421 2 -362
4 -418 17 -428 14 -10 14 -12 0 -24 -9 -8 -16 -26 -16 -41 l0 -27 108 -7 c98
-6 320 5 399 20 26 5 33 3 33 -9 0 -8 3 -22 6 -31 4 -11 0 -16 -12 -17 -11 0
1 -6 26 -13 25 -7 98 -28 162 -46 l118 -33 237 39 c130 21 242 45 249 52 7 6
23 13 36 13 13 1 16 3 8 5 -9 3 -63 -5 -120 -17 -110 -23 -233 -36 -214 -22 6
4 14 18 18 30 5 17 20 25 62 34 l56 13 -66 19 c-42 13 -66 25 -66 35 0 10 8
13 27 9 37 -7 52 1 46 24 -3 10 0 26 7 34 14 17 12 17 -55 16 -32 0 -36 1 -20
9 11 5 30 9 41 9 21 1 34 18 34 47 0 10 -12 14 -40 14 -29 0 -40 4 -40 15 0 9
-7 18 -15 21 -12 5 -23 52 -12 55 1 0 116 4 255 9 140 5 256 11 259 13 4 5
-26 539 -31 544 -8 9 -793 89 -800 82 -10 -9 -9 -266 1 -397 l6 -83 -34 3 -34
3 -5 100 c-5 92 -7 103 -35 140 -16 22 -35 45 -42 50 -23 19 -33 66 -33 150
l0 84 53 3 52 3 -75 12 c-41 7 -111 14 -155 17 -78 5 -84 4 -235 -51z m9 -199
c12 -15 21 -31 21 -37 0 -6 -7 -2 -15 9 -8 10 -15 15 -15 9 0 -5 -7 1 -16 13
-11 16 -24 22 -42 20 -28 -3 -44 -28 -18 -28 9 0 16 -4 16 -10 0 -5 9 -10 19
-10 36 0 38 -73 3 -112 -13 -16 -13 -18 0 -18 18 0 42 19 56 45 6 11 12 14 12
7 0 -20 -47 -62 -69 -62 -65 0 -106 115 -61 173 29 37 80 38 109 1z m28 -86
c-3 -8 -6 -5 -6 6 -1 11 2 17 5 13 3 -3 4 -12 1 -19z m28 -198 c10 -11 15 -23
12 -27 -4 -3 -7 -1 -7 6 0 7 -10 11 -22 9 -17 -2 -23 -10 -23 -28 0 -31 31
-39 51 -13 14 17 14 16 4 -4 -11 -24 -48 -48 -58 -39 -3 4 -7 12 -9 19 -16 67
-16 70 2 84 25 17 29 17 50 -7z m2 -122 c21 -17 16 -65 -9 -82 -30 -21 -34
-20 -47 12 -23 56 15 104 56 70z"/>
<path d="M6107 1257 c-3 -7 -1 -20 4 -28 6 -11 11 -11 21 -1 10 10 9 15 -4 28
-13 13 -16 13 -21 1z"/>
<path d="M6187 894 c-11 -12 -8 -41 6 -52 18 -16 39 1 35 29 -3 23 -27 37 -41
23z"/>
<path d="M1350 1446 c0 -9 7 -16 16 -16 9 0 14 5 12 12 -6 18 -28 21 -28 4z"/>
<path d="M1285 1068 c-23 -33 1 -36 33 -4 26 25 26 26 5 26 -12 0 -29 -10 -38
-22z"/>
<path d="M2325 1068 c-23 -33 1 -36 33 -4 26 25 26 26 5 26 -12 0 -29 -10 -38
-22z"/>
<path d="M760 910 c0 -66 4 -111 10 -111 32 -5 35 -1 40 46 l5 50 30 -48 c17
-26 38 -50 49 -53 35 -12 36 12 1 63 -19 29 -35 55 -35 58 0 4 14 26 30 50 36
53 37 55 5 55 -18 0 -31 -11 -52 -47 l-28 -48 -3 48 c-3 42 -5 47 -28 47 l-24
0 0 -110z"/>
<path d="M960 911 c0 -90 3 -110 16 -115 26 -10 34 2 34 50 l0 44 45 0 45 0 0
-44 c0 -43 18 -65 41 -50 5 3 9 54 9 115 l0 109 -25 0 c-23 0 -25 -4 -25 -45
l0 -45 -45 0 -45 0 0 45 c0 41 -2 45 -25 45 l-25 0 0 -109z"/>
<path d="M1228 914 c-21 -59 -35 -111 -32 -115 10 -17 35 -9 46 16 9 20 18 25
48 25 30 0 39 -5 49 -26 7 -16 18 -24 29 -22 22 4 22 6 -18 126 -31 94 -36
102 -60 102 -23 0 -28 -9 -62 -106z m77 -6 c6 -24 4 -28 -14 -28 -22 0 -25 10
-15 48 8 27 20 19 29 -20z"/>
<path d="M1432 908 c2 -93 6 -113 18 -113 11 0 16 17 20 70 l5 70 25 -42 c14
-25 33 -43 43 -43 9 0 17 3 17 8 0 4 10 23 23 42 l22 35 5 -70 c4 -53 9 -70
20 -70 12 0 16 20 18 113 l3 112 -25 0 c-19 0 -31 -11 -53 -50 -15 -27 -31
-50 -34 -50 -3 0 -18 23 -33 50 -21 39 -33 50 -52 50 l-25 0 3 -112z"/>
<path d="M1800 911 c0 -90 3 -110 16 -115 25 -10 34 2 34 45 0 36 2 39 29 39
41 0 81 35 81 71 0 48 -30 69 -100 69 l-60 0 0 -109z m108 45 c4 -20 -13 -36
-40 -36 -13 0 -18 8 -18 31 0 27 3 30 27 27 18 -2 29 -10 31 -22z"/>
<path d="M2000 911 c0 -90 3 -110 16 -115 26 -10 34 2 34 50 l0 44 45 0 45 0
0 -44 c0 -43 18 -65 41 -50 5 3 9 54 9 115 l0 109 -25 0 c-23 0 -25 -4 -25
-45 l0 -45 -45 0 -45 0 0 45 c0 41 -2 45 -25 45 l-25 0 0 -109z"/>
<path d="M2268 914 c-21 -59 -35 -111 -32 -115 10 -17 35 -9 46 16 9 20 18 25
48 25 30 0 39 -5 49 -26 7 -16 18 -24 29 -22 22 4 22 6 -18 126 -31 94 -36
102 -60 102 -23 0 -28 -9 -62 -106z m77 -6 c6 -24 4 -28 -14 -28 -22 0 -25 10
-15 48 8 27 20 19 29 -20z"/>
<path d="M2867 892 c-82 -55 -122 -186 -71 -236 19 -20 73 -20 98 -1 11 8 15
15 9 15 -7 0 -15 -4 -18 -10 -3 -5 -19 -10 -35 -10 -55 0 -66 70 -26 156 22
46 66 94 88 94 19 0 19 -31 -2 -60 -16 -22 -18 -30 -7 -30 15 0 37 40 37 69 0
17 -18 31 -38 31 -4 0 -19 -8 -35 -18z"/>
<path d="M3786 888 c-9 -12 -28 -28 -43 -35 -22 -10 -23 -12 -5 -7 21 5 23 3
17 -18 -30 -96 -84 -173 -106 -151 -14 14 12 64 47 92 15 12 22 21 15 21 -24
0 -82 -65 -84 -95 -3 -38 26 -45 59 -14 l24 22 0 -21 c0 -28 41 -30 61 -4 11
14 11 15 -1 5 -8 -7 -20 -13 -28 -13 -19 0 -9 54 23 126 19 42 29 54 47 55 17
1 18 3 5 6 -12 3 -15 11 -11 29 8 30 0 31 -20 2z"/>
<path d="M5100 881 c-34 -49 -70 -136 -73 -177 -2 -34 1 -39 22 -42 13 -2 28
1 34 7 7 7 3 8 -11 4 -33 -8 -39 23 -12 59 12 17 18 28 11 24 -19 -12 -12 17
17 69 16 28 34 49 40 48 7 -2 12 3 12 11 0 28 -19 26 -40 -3z"/>
<path d="M5463 898 c-16 -19 -76 -169 -70 -175 8 -7 90 163 85 177 -3 9 -7 9
-15 -2z"/>
<path d="M3005 826 c-38 -79 -55 -159 -36 -170 7 -5 19 10 31 38 25 59 53 64
48 9 -4 -47 21 -56 60 -21 14 12 22 18 19 11 -10 -17 3 -43 21 -43 8 0 24 7
34 17 11 9 18 11 18 5 0 -21 46 -13 66 11 19 22 19 22 -2 5 -37 -32 -56 -19
-34 23 18 32 -6 21 -34 -16 -15 -19 -31 -35 -37 -35 -19 0 -8 49 17 79 28 34
54 41 54 14 0 -12 3 -14 11 -6 15 15 2 33 -24 33 -14 0 -44 -21 -77 -55 -58
-59 -87 -71 -74 -32 15 45 11 62 -16 62 -16 0 -32 -11 -48 -35 l-25 -35 7 30
c4 17 16 39 26 50 30 34 60 89 60 113 0 45 -30 21 -65 -52z m34 -6 c-13 -22
-27 -40 -31 -40 -5 0 3 23 19 51 15 28 29 46 31 40 2 -6 -7 -29 -19 -51z"/>
<path d="M4242 820 c-32 -55 -49 -127 -38 -155 8 -21 40 -19 67 6 l24 20 -27
-16 c-31 -19 -48 -13 -48 18 0 47 12 67 39 68 23 2 23 2 4 6 l-23 4 21 40 c32
63 16 70 -19 9z"/>
<path d="M3925 839 c-5 -15 -10 -17 -20 -9 -14 11 -45 4 -45 -12 0 -5 9 -7 19
-3 13 4 23 0 30 -12 7 -13 10 -14 11 -4 0 8 10 25 22 38 18 19 19 23 5 23 -8
0 -19 -9 -22 -21z"/>
<path d="M7822 853 c-10 -4 -9 -9 4 -24 22 -25 29 -24 42 6 11 23 9 25 -11 24
-12 0 -28 -3 -35 -6z"/>
<path d="M5335 829 c-4 -6 -5 -13 -2 -16 7 -7 27 6 27 18 0 12 -17 12 -25 -2z"/>
<path d="M4583 796 c4 -11 -3 -16 -26 -18 -31 -3 -32 -4 -32 -53 0 -39 -4 -50
-17 -53 -21 -4 -24 27 -8 59 7 12 7 19 1 19 -27 0 -42 -84 -17 -93 13 -5 84
38 79 48 -8 16 12 64 28 68 20 5 17 37 -3 37 -6 0 -8 -6 -5 -14z m-23 -40 c0
-22 -11 -46 -21 -46 -10 0 -12 43 -2 53 11 12 23 8 23 -7z"/>
<path d="M5090 790 c-6 -11 -8 -20 -6 -20 3 0 10 9 16 20 6 11 8 20 6 20 -3 0
-10 -9 -16 -20z"/>
<path d="M3848 775 c-14 -8 -32 -28 -39 -44 -7 -16 -17 -27 -22 -24 -5 3 -1
-9 7 -26 13 -24 23 -31 44 -30 23 2 24 2 5 6 -34 6 -29 38 7 53 34 14 55 44
46 66 -7 17 -14 17 -48 -1z m36 -20 c-6 -16 -53 -49 -60 -42 -8 8 47 67 56 62
5 -3 7 -12 4 -20z"/>
<path d="M3368 769 c-10 -5 -23 -20 -29 -32 -12 -22 -12 -22 10 -3 29 26 37
14 24 -34 -13 -51 -3 -51 31 0 34 52 50 52 41 -1 -7 -40 -6 -40 20 -37 15 2
33 12 39 23 10 18 10 18 -3 3 -24 -31 -43 -23 -35 16 8 48 -2 61 -31 42 -22
-15 -24 -14 -27 6 -4 25 -17 31 -40 17z"/>
<path d="M4436 765 c5 -13 2 -16 -15 -13 -16 2 -27 -6 -44 -36 -12 -22 -28
-41 -34 -44 -16 -5 -17 41 -3 69 7 12 7 19 1 19 -15 0 -31 -35 -31 -69 0 -23
5 -31 18 -31 10 0 23 5 29 11 8 8 13 8 17 0 4 -6 17 -10 29 -10 17 1 18 2 5 6
-21 5 -21 2 -7 41 7 20 18 32 32 34 24 3 30 29 9 36 -8 2 -10 -2 -6 -13z"/>
<path d="M4814 766 c-11 -8 -33 -33 -48 -55 -39 -56 -57 -54 -49 4 5 40 4 45
-14 45 -10 0 -28 -7 -39 -15 -18 -15 -18 -15 9 -9 27 6 28 6 25 -32 -3 -34 0
-39 19 -42 14 -2 27 4 34 16 12 20 13 20 30 -2 l17 -21 26 24 c29 28 30 26 15
-17 -6 -18 -15 -29 -20 -26 -5 3 -6 -1 -4 -8 7 -17 -21 -56 -31 -45 -5 4 -2
18 5 30 13 20 13 21 -2 8 -19 -15 -22 -37 -6 -46 18 -12 76 57 85 100 16 81
16 88 5 81 -6 -4 -11 -13 -11 -20 0 -15 -42 -56 -58 -56 -35 0 21 85 61 93 20
4 20 4 -3 6 -14 0 -35 -5 -46 -13z"/>
<path d="M5133 734 c-27 -26 -42 -44 -35 -40 8 5 12 0 12 -14 0 -28 26 -36 49
-16 13 12 21 14 26 7 10 -18 43 -13 64 10 l19 21 7 -21 c9 -28 47 -27 71 2 19
22 19 22 -2 5 -44 -38 -64 -14 -35 43 24 46 25 49 11 49 -6 0 -19 -18 -29 -40
-10 -22 -20 -38 -23 -35 -3 3 -13 -4 -23 -15 -21 -24 -50 -27 -41 -5 3 8 9 22
12 30 11 27 -10 16 -39 -20 -15 -19 -32 -35 -37 -35 -16 0 -11 33 10 68 26 42
49 51 67 26 14 -19 15 -19 11 1 -6 38 -44 30 -95 -21z"/>
<path d="M3306 748 c-3 -7 -9 -28 -15 -47 -13 -41 -13 -41 -1 -41 12 0 31 36
37 71 4 28 -14 42 -21 17z"/>
<path d="M3931 723 c-17 -60 -13 -71 12 -39 15 18 22 38 19 53 -6 34 -20 28
-31 -14z"/>
<path d="M3984 745 c-18 -15 -18 -15 9 -9 27 6 28 6 25 -32 -3 -35 -1 -39 21
-39 15 0 29 9 38 25 15 25 15 25 -2 3 -29 -39 -46 -29 -38 22 5 40 4 45 -14
45 -10 0 -28 -7 -39 -15z"/>
<path d="M4614 730 c-4 -16 -9 -28 -13 -25 -4 2 -13 -1 -21 -7 -12 -8 -12 -9
3 -4 13 4 17 0 17 -17 0 -21 1 -20 23 7 15 18 22 38 19 53 -6 32 -21 29 -28
-7z"/>
<path d="M7500 646 l-34 -64 -61 -6 c-33 -4 -78 -9 -100 -12 -29 -4 -36 -3
-25 5 22 15 10 20 -43 14 -43 -5 -46 -7 -29 -19 32 -22 218 -47 297 -40 107
10 196 27 189 37 -3 5 2 9 10 9 9 0 16 4 16 9 0 17 -159 131 -183 131 -1 0
-18 -29 -37 -64z"/>
<path d="M3884 678 l-19 -23 23 19 c12 11 22 21 22 23 0 8 -8 2 -26 -19z"/>
<path d="M5370 669 c0 -5 5 -7 10 -4 6 3 10 8 10 11 0 2 -4 4 -10 4 -5 0 -10
-5 -10 -11z"/>
<path d="M1053 628 c-24 -31 -22 -35 23 -36 40 0 44 1 32 16 -26 34 -40 39
-55 20z"/>
<path d="M2577 622 c-24 -26 -22 -29 23 -29 44 0 49 6 22 30 -23 21 -25 21
-45 -1z"/>
<path d="M3155 610 c-3 -5 1 -10 9 -10 9 0 16 5 16 10 0 6 -4 10 -9 10 -6 0
-13 -4 -16 -10z"/>
<path d="M793 555 c-48 -33 -52 -143 -8 -185 42 -40 152 -34 143 8 -2 9 -11
16 -18 14 -69 -16 -103 6 -103 67 0 55 17 73 65 70 39 -3 65 11 54 30 -11 17
-108 13 -133 -4z"/>
<path d="M996 539 c-51 -60 -28 -167 39 -189 92 -30 163 48 135 150 -13 50
-42 70 -101 70 -40 0 -51 -4 -73 -31z m114 -24 c7 -9 13 -34 13 -57 0 -66 -53
-96 -90 -50 -18 22 -16 87 3 106 20 20 58 21 74 1z"/>
<path d="M1232 458 c2 -93 6 -113 18 -113 11 0 16 17 20 70 l5 70 43 -67 c74
-114 92 -105 92 43 0 101 -1 109 -20 109 -17 0 -19 -8 -22 -67 l-3 -67 -44 67
c-34 52 -49 67 -68 67 l-24 0 3 -112z"/>
<path d="M1495 546 c-21 -21 -25 -34 -25 -84 0 -95 52 -138 141 -115 33 9 34
10 34 64 l0 54 -42 3 c-38 3 -43 1 -43 -17 0 -14 6 -21 20 -21 13 0 20 -7 20
-19 0 -25 -21 -32 -51 -17 -20 9 -25 20 -27 60 -4 63 9 78 67 74 40 -3 46 -1
46 17 0 17 -8 20 -57 23 -51 3 -61 0 -83 -22z"/>
<path d="M1802 458 c2 -93 6 -113 18 -113 11 0 16 17 20 70 l5 69 43 -66 c74
-113 92 -105 92 43 0 101 -1 109 -20 109 -17 0 -19 -8 -22 -67 l-3 -68 -44 68
c-34 51 -50 67 -68 67 -24 0 -24 0 -21 -112z"/>
<path d="M2073 555 c-28 -19 -46 -84 -37 -129 10 -55 46 -81 111 -80 64 0 74
11 71 74 l-3 45 -42 3 c-38 3 -43 1 -43 -17 0 -14 6 -21 20 -21 22 0 29 -39 8
-41 -48 -5 -71 18 -71 70 0 57 17 74 70 68 41 -4 62 10 47 34 -9 15 -108 10
-131 -6z"/>
<path d="M2282 458 c2 -93 6 -113 18 -113 11 0 16 13 18 48 l3 47 45 0 44 0 0
-44 c0 -43 18 -65 41 -50 5 3 9 54 9 115 l0 109 -25 0 c-23 0 -25 -4 -25 -46
l0 -45 -42 3 c-43 3 -43 3 -46 46 -3 34 -7 42 -23 42 -19 0 -19 -6 -17 -112z"/>
<path d="M2530 460 l0 -110 65 0 c58 0 65 2 65 20 0 17 -7 20 -40 20 -36 0
-40 3 -40 25 0 22 4 25 35 25 28 0 35 4 35 20 0 16 -7 20 -35 20 -31 0 -35 3
-35 25 0 23 4 25 40 25 33 0 40 3 40 20 0 18 -7 20 -65 20 l-65 0 0 -110z"/>
<path d="M2580 300 c0 -11 7 -20 15 -20 8 0 15 9 15 20 0 11 -7 20 -15 20 -8
0 -15 -9 -15 -20z"/>
</g>
</svg>
